<svg width="0" height="0" class="hidden">
<symbol id="backspace" viewBox="0 0 24 24" fill="none" xmlns="http://www.w3.org/2000/svg">
<path d="M20.3333 4H7.83333C7.25833 4 6.80833 4.29167 6.50833 4.73333L2 11.5L6.50833 18.2583C6.80833 18.7 7.25833 19 7.83333 19H20.3333C21.25 19 22 18.25 22 17.3333V5.66667C22 4.75 21.25 4 20.3333 4ZM20.3333 17.3333H7.89167L4 11.5L7.88333 5.66667H20.3333V17.3333ZM10.675 15.6667L13.6667 12.675L16.6583 15.6667L17.8333 14.4917L14.8417 11.5L17.8333 8.50833L16.6583 7.33333L13.6667 10.325L10.675 7.33333L9.5 8.50833L12.4917 11.5L9.5 14.4917L10.675 15.6667Z" fill="#626266"/>
</symbol>
<symbol id="dashboard" viewBox="0 0 24 24" fill="none" xmlns="http://www.w3.org/2000/svg">
<path d="M5 10H7C9 10 10 9 10 7V5C10 3 9 2 7 2H5C3 2 2 3 2 5V7C2 9 3 10 5 10Z" stroke="inherit" stroke-miterlimit="10" stroke-linecap="round" stroke-linejoin="round"/>
<path d="M17 10H19C21 10 22 9 22 7V5C22 3 21 2 19 2H17C15 2 14 3 14 5V7C14 9 15 10 17 10Z" stroke="inherit" stroke-miterlimit="10" stroke-linecap="round" stroke-linejoin="round"/>
<path d="M17 22H19C21 22 22 21 22 19V17C22 15 21 14 19 14H17C15 14 14 15 14 17V19C14 21 15 22 17 22Z" stroke="inherit" stroke-miterlimit="10" stroke-linecap="round" stroke-linejoin="round"/>
<path d="M5 22H7C9 22 10 21 10 19V17C10 15 9 14 7 14H5C3 14 2 15 2 17V19C2 21 3 22 5 22Z" stroke="inherit" stroke-miterlimit="10" stroke-linecap="round" stroke-linejoin="round"/>
</symbol>
<symbol id="delivery-truck" viewBox="0 0 24 24" fill="none" xmlns="http://www.w3.org/2000/svg">
<path d="M18.704 18.296C19.323 18.915 19.323 19.918 18.704 20.536C18.085 21.155 17.082 21.155 16.464 20.536C15.845 19.917 15.845 18.914 16.464 18.296C17.083 17.677 18.086 17.677 18.704 18.296" stroke="inherit" stroke-linecap="round" stroke-linejoin="round"/>
<path d="M7.70412 18.296C8.32312 18.915 8.32312 19.918 7.70412 20.536C7.08512 21.155 6.08212 21.155 5.46412 20.536C4.84612 19.917 4.84512 18.914 5.46412 18.296C6.08312 17.678 7.08512 17.677 7.70412 18.296" stroke="inherit" stroke-linecap="round" stroke-linejoin="round"/>
<path d="M10 4H14C14.552 4 15 4.448 15 5V15H2" stroke="inherit" stroke-linecap="round" stroke-linejoin="round"/>
<path d="M5 19.416H3C2.448 19.416 2 18.968 2 18.416V13" stroke="inherit" stroke-linecap="round" stroke-linejoin="round"/>
<path d="M15 7H19.323C19.732 7 20.1 7.249 20.251 7.629L21.857 11.643C21.951 11.879 22 12.131 22 12.385V18.333C22 18.885 21.552 19.333 21 19.333H19.169" stroke="inherit" stroke-linecap="round" stroke-linejoin="round"/>
<path d="M15.9999 19.42H8.16992" stroke="inherit" stroke-linecap="round" stroke-linejoin="round"/>
<path d="M22 14H18V10H21.2" stroke="inherit" stroke-linecap="round" stroke-linejoin="round"/>
<path d="M2 4H7" stroke="inherit" stroke-linecap="round" stroke-linejoin="round"/>
<path d="M2 7H5" stroke="inherit" stroke-linecap="round" stroke-linejoin="round"/>
<path d="M3 10H2" stroke="inherit" stroke-linecap="round" stroke-linejoin="round"/>
</symbol>
<symbol id="delivery-door" viewBox="0 0 24 24" fill="none" xmlns="http://www.w3.org/2000/svg">
<path d="M4.99731 2.99622H18.0027C19.1078 2.99622 20.0036 3.89202 20.0036 4.99705V10.9995" stroke="inherit" stroke-linecap="round" stroke-linejoin="round"/>
<path d="M18.5029 15.0012V18.0025" stroke="inherit" stroke-linecap="round" stroke-linejoin="round"/>
<path d="M22.0044 18.7808C22.0044 18.351 21.6559 18.0025 21.2261 18.0025H15.7798C15.5734 18.0025 15.3754 18.0845 15.2294 18.2305C15.0835 18.3765 15.0015 18.5744 15.0015 18.7808" stroke="inherit" stroke-linecap="round" stroke-linejoin="round"/>
<path fill-rule="evenodd" clip-rule="evenodd" d="M16.0019 22.0041H21.004C21.5565 22.0041 22.0044 21.5562 22.0044 21.0037V17.4372C22.0043 17.0318 21.9223 16.6306 21.7633 16.2577L21.4852 15.6085C21.3278 15.2403 20.9661 15.0014 20.5658 15.0012H16.4401C16.0393 15.001 15.6772 15.24 15.5197 15.6085L15.2426 16.2567C15.0835 16.6296 15.0015 17.0308 15.0015 17.4362V21.0037C15.0015 21.5562 15.4494 22.0041 16.0019 22.0041Z" stroke="inherit" stroke-linecap="round" stroke-linejoin="round"/>
<path d="M10.9998 21.0037H4.99731" stroke="inherit" stroke-linecap="round" stroke-linejoin="round"/>
<path fill-rule="evenodd" clip-rule="evenodd" d="M2.99634 4.99704V19.0029C2.99634 19.6962 3.35534 20.3401 3.9451 20.7047C4.53486 21.0693 5.27132 21.1025 5.89154 20.7926L9.89321 18.7918C10.5713 18.453 10.9997 17.76 10.9997 17.002V6.99787C10.9985 6.24094 10.5703 5.54947 9.89321 5.21112L5.89154 3.21029C5.2718 2.9006 4.53595 2.93356 3.94637 3.29741C3.35679 3.66126 2.9974 4.30422 2.99634 4.99704Z" stroke="inherit" stroke-linecap="round" stroke-linejoin="round"/>
<path d="M7.9985 10.9996V13.0005" stroke="inherit" stroke-linecap="round" stroke-linejoin="round"/>
</symbol>
<symbol id="package-box" viewBox="0 0 24 24" fill="none" xmlns="http://www.w3.org/2000/svg">
<path d="M10 21H5C3.89543 21 3 20.1046 3 19V8.70044C2.99999 7.59256 3.61057 6.57485 4.58809 6.05344L10.5881 2.85302C11.4705 2.38233 12.5295 2.38233 13.4119 2.85302L19.4119 6.05344C20.3894 6.57485 21 7.59256 21 8.70044V10" stroke="inherit" stroke-linecap="round" stroke-linejoin="round"/>
<path fill-rule="evenodd" clip-rule="evenodd" d="M21 22H14.125C13.5037 22 13 21.4963 13 20.875V15.9539C13 15.5487 13.0821 15.1476 13.2413 14.775L13.6756 13.7588C13.8723 13.2985 14.3245 13 14.825 13H20.174C20.6743 13 21.1265 13.2983 21.3233 13.7584L21.7583 14.7752C21.9178 15.1481 22 15.5495 22 15.9551V21C22 21.5523 21.5523 22 21 22Z" stroke="inherit" stroke-linecap="round" stroke-linejoin="round"/>
<path d="M17.5 13V16" stroke="inherit" stroke-linecap="round" stroke-linejoin="round"/>
<path d="M22 21V17C22 16.4477 21.5523 16 21 16H14C13.4477 16 13 16.4477 13 17V21" stroke="inherit" stroke-linecap="round" stroke-linejoin="round"/>
<path d="M10 9H14" stroke="inherit" stroke-linecap="round" stroke-linejoin="round"/>
<path d="M10 13H8C7.44772 13 7 13.4477 7 14V21" stroke="inherit" stroke-linecap="round" stroke-linejoin="round"/>
<path d="M10 17H7" stroke="inherit" stroke-linecap="round" stroke-linejoin="round"/>
</symbol>
<symbol id="package-box-refresh" viewBox="0 0 24 24" fill="none" xmlns="http://www.w3.org/2000/svg">
<path d="M1.49585 11.2496L2.99647 9.74902L4.4971 11.2496" stroke="#898A8F" stroke-linecap="round" stroke-linejoin="round"/>
<path d="M22.5044 12.7504L21.0038 14.251L19.5032 12.7504" stroke="#898A8F" stroke-linecap="round" stroke-linejoin="round"/>
<path d="M4.67505 6.7868C7.15279 3.27612 11.7684 2.00944 15.691 3.76365C19.6136 5.51786 21.7466 9.80253 20.7818 13.9898" stroke="#898A8F" stroke-linecap="round" stroke-linejoin="round"/>
<path d="M19.3212 17.2091C16.8434 20.7198 12.2278 21.9865 8.30524 20.2322C4.38263 18.478 2.24964 14.1934 3.21446 10.0061" stroke="#898A8F" stroke-linecap="round" stroke-linejoin="round"/>
<path d="M12.0002 8.49854V11.4998" stroke="#898A8F" stroke-linecap="round" stroke-linejoin="round"/>
<path d="M15.5017 12.2782C15.5017 11.8483 15.1532 11.4998 14.7234 11.4998H9.2771C8.84725 11.4998 8.49878 11.8483 8.49878 12.2782" stroke="#898A8F" stroke-linecap="round" stroke-linejoin="round"/>
<path fill-rule="evenodd" clip-rule="evenodd" d="M9.4992 15.5015H14.5013C15.0538 15.5015 15.5017 15.0536 15.5017 14.501V10.9346C15.5016 10.5292 15.4196 10.128 15.2606 9.75506L14.9825 9.10579C14.8251 8.73764 14.4635 8.49875 14.0631 8.49854H9.93738C9.53665 8.49835 9.17448 8.73731 9.017 9.10579L8.73988 9.75406C8.58086 10.127 8.49885 10.5282 8.49878 10.9335V14.501C8.49878 15.0536 8.94668 15.5015 9.4992 15.5015Z" stroke="#898A8F" stroke-linecap="round" stroke-linejoin="round"/>
</symbol>
<symbol id="delete" viewBox="0 0 24 24" fill="none" xmlns="http://www.w3.org/2000/svg">
<path d="M8 8L16 16" stroke="inherit" stroke-width="1.5" stroke-linecap="round" stroke-linejoin="round"/>
<path d="M16 8L8 16" stroke="inherit" stroke-width="1.5" stroke-linecap="round" stroke-linejoin="round"/>
</symbol>
<symbol id="gif" viewBox="0 0 24 24" fill="none" xmlns="http://www.w3.org/2000/svg">
<path d="M15.1401 12.25H17.2601" stroke="#323232" stroke-width="1.5" stroke-linecap="round" stroke-linejoin="round"/>
<path d="M17.6982 10.004H15.1382V14.5" stroke="#323232" stroke-width="1.5" stroke-linecap="round" stroke-linejoin="round"/>
<path d="M12.4502 10V14.5" stroke="#323232" stroke-width="1.5" stroke-linecap="round" stroke-linejoin="round"/>
<path d="M9.75 10H8.25C7.007 10 6 11.007 6 12.25V12.25C6 13.493 7.007 14.5 8.25 14.5H9.75V12.25H8.5" stroke="#323232" stroke-width="1.5" stroke-linecap="round" stroke-linejoin="round"/>
<path fill-rule="evenodd" clip-rule="evenodd" d="M18.6667 22H5.33333C3.49222 22 2 20.5078 2 18.6667V5.33333C2 3.49222 3.49222 2 5.33333 2H18.6667C20.5078 2 22 3.49222 22 5.33333V18.6667C22 20.5078 20.5078 22 18.6667 22Z" stroke="#323232" stroke-width="1.5" stroke-linecap="round" stroke-linejoin="round"/>
</symbol>
<symbol id="pinned" viewBox="0 0 24 24" fill="none" xmlns="http://www.w3.org/2000/svg">
<path d="M12 20V15" stroke="#898A8F" stroke-width="1.5" stroke-linecap="round" stroke-linejoin="round"/>
<path fill-rule="evenodd" clip-rule="evenodd" d="M6.99 15H17.01C17.557 15 18 14.557 18 14.01V14.01C18 13.69 17.846 13.39 17.585 13.204L14.5 11V8L17.055 6.297C17.333 6.111 17.5 5.799 17.5 5.465V5C17.5 4.448 17.052 4 16.5 4H7.5C6.948 4 6.5 4.448 6.5 5V5.465C6.5 5.799 6.667 6.112 6.945 6.297L9.5 8V11L6.415 13.204C6.154 13.39 6 13.69 6 14.01V14.01C6 14.557 6.443 15 6.99 15V15Z" stroke="#898A8F" stroke-width="1.5" stroke-linecap="round" stroke-linejoin="round"/>
</symbol>
<symbol id="photo" viewBox="0 0 24 24" fill="none" xmlns="http://www.w3.org/2000/svg">
<path fill-rule="evenodd" clip-rule="evenodd" d="M18.6667 22H5.33333C3.49222 22 2 20.5078 2 18.6667V5.33333C2 3.49222 3.49222 2 5.33333 2H18.6667C20.5078 2 22 3.49222 22 5.33333V18.6667C22 20.5078 20.5078 22 18.6667 22Z" stroke="#323232" stroke-width="1.5" stroke-linecap="round" stroke-linejoin="round"/>
<path d="M2 18.0955L7.12444 12.9711C7.55889 12.5367 8.26222 12.5367 8.69556 12.9711L10.2578 14.5333L15.3433 9.44888C15.7778 9.01444 16.4811 9.01444 16.9144 9.44888L22 14.5344" stroke="#323232" stroke-width="1.5" stroke-linecap="round" stroke-linejoin="round"/>
<path d="M8.12802 6.89643C8.29073 7.05914 8.29073 7.32296 8.12802 7.48568C7.9653 7.6484 7.70148 7.6484 7.53876 7.48568C7.37604 7.32296 7.37604 7.05914 7.53876 6.89643C7.70148 6.73371 7.9653 6.73371 8.12802 6.89643" stroke="#323232" stroke-width="1.5" stroke-linecap="round" stroke-linejoin="round"/>
</symbol>
<symbol id="arrow-down" viewBox="0 0 8 8" fill="none" xmlns="http://www.w3.org/2000/svg">
<path d="M3.62326 5.57L1.22526 2.829C0.942261 2.5065 1.17226 2 1.60176 2H6.39776C6.49388 1.99992 6.58799 2.02754 6.66882 2.07957C6.74964 2.1316 6.81376 2.20582 6.85349 2.29335C6.89321 2.38087 6.90687 2.478 6.89282 2.57309C6.87877 2.66818 6.83761 2.7572 6.77426 2.8295L4.37626 5.5695C4.32933 5.6232 4.27145 5.66625 4.20652 5.69574C4.14158 5.72523 4.07108 5.74049 3.99976 5.74049C3.92844 5.74049 3.85794 5.72523 3.79301 5.69574C3.72807 5.66625 3.67019 5.6232 3.62326 5.5695V5.57Z" fill="#898A8F"/>
</symbol>
<symbol id="arrow-up" viewBox="0 0 8 8" fill="none" xmlns="http://www.w3.org/2000/svg">
<path d="M4.37649 2.43001L6.77449 5.17101C7.05749 5.49351 6.82749 6.00001 6.39799 6.00001H1.60199C1.50587 6.00009 1.41176 5.97247 1.33094 5.92044C1.25011 5.86841 1.18599 5.79419 1.14627 5.70667C1.10654 5.61914 1.09288 5.52201 1.10693 5.42692C1.12098 5.33183 1.16215 5.24281 1.22549 5.17051L3.62349 2.43051C3.67042 2.37681 3.7283 2.33376 3.79324 2.30427C3.85817 2.27478 3.92867 2.25952 3.99999 2.25952C4.07131 2.25952 4.14181 2.27478 4.20675 2.30427C4.27168 2.33376 4.32956 2.37631 4.37649 2.43001Z" fill="#898A8F"/>
</symbol>
<symbol id="delete-circle" viewBox="0 0 24 24" fill="none" xmlns="http://www.w3.org/2000/svg">
<rect width="24" height="24" rx="12" fill="#CC4956"/>
<path fill-rule="evenodd" clip-rule="evenodd" d="M7.3637 7.36358C7.71517 7.01211 8.28502 7.01211 8.63649 7.36358L16.6365 15.3636C16.988 15.7151 16.988 16.2849 16.6365 16.6364C16.285 16.9878 15.7152 16.9878 15.3637 16.6364L7.3637 8.63637C7.01223 8.2849 7.01223 7.71505 7.3637 7.36358Z" fill="white"/>
<path fill-rule="evenodd" clip-rule="evenodd" d="M16.6365 7.36358C16.988 7.71505 16.988 8.2849 16.6365 8.63637L8.63649 16.6364C8.28502 16.9878 7.71517 16.9878 7.3637 16.6364C7.01223 16.2849 7.01223 15.7151 7.3637 15.3636L15.3637 7.36358C15.7152 7.01211 16.285 7.01211 16.6365 7.36358Z" fill="white"/>
</symbol>
<symbol id="first-line" viewBox="0 0 24 24" fill="none" xmlns="http://www.w3.org/2000/svg">
<path fill-rule="evenodd" clip-rule="evenodd" d="M13.25 7C13.25 6.58579 13.5858 6.25 14 6.25H21C21.4142 6.25 21.75 6.58579 21.75 7C21.75 7.41421 21.4142 7.75 21 7.75H14C13.5858 7.75 13.25 7.41421 13.25 7Z" fill="#626266"/>
<path fill-rule="evenodd" clip-rule="evenodd" d="M13.25 12C13.25 11.5858 13.5858 11.25 14 11.25H21C21.4142 11.25 21.75 11.5858 21.75 12C21.75 12.4142 21.4142 12.75 21 12.75H14C13.5858 12.75 13.25 12.4142 13.25 12Z" fill="#626266"/>
<path fill-rule="evenodd" clip-rule="evenodd" d="M2.25 17C2.25 16.5858 2.58579 16.25 3 16.25H21C21.4142 16.25 21.75 16.5858 21.75 17C21.75 17.4142 21.4142 17.75 21 17.75H3C2.58579 17.75 2.25 17.4142 2.25 17Z" fill="#626266"/>
<path fill-rule="evenodd" clip-rule="evenodd" d="M2.25 9C2.25 8.58579 2.58579 8.25 3 8.25H9C9.41421 8.25 9.75 8.58579 9.75 9C9.75 9.41421 9.41421 9.75 9 9.75H3C2.58579 9.75 2.25 9.41421 2.25 9Z" fill="#626266"/>
<path fill-rule="evenodd" clip-rule="evenodd" d="M6 5.25C6.41421 5.25 6.75 5.58579 6.75 6V12C6.75 12.4142 6.41421 12.75 6 12.75C5.58579 12.75 5.25 12.4142 5.25 12V6C5.25 5.58579 5.58579 5.25 6 5.25Z" fill="#626266"/>
</symbol>
<symbol id="heart" viewBox="0 0 24 24" fill="none" xmlns="http://www.w3.org/2000/svg">
<path d="M12.62 20.81C12.28 20.93 11.72 20.93 11.38 20.81C8.48 19.82 2 15.69 2 8.68998C2 5.59998 4.49 3.09998 7.56 3.09998C9.38 3.09998 10.99 3.97998 12 5.33998C13.01 3.97998 14.63 3.09998 16.44 3.09998C19.51 3.09998 22 5.59998 22 8.68998C22 15.69 15.52 19.82 12.62 20.81Z" fill="#CCCCCC"/>
</symbol>
<symbol id="profile" viewBox="0 0 24 24" fill="none" xmlns="http://www.w3.org/2000/svg">
<path d="M12.1601 10.87C12.0601 10.86 11.9401 10.86 11.8301 10.87C9.45006 10.79 7.56006 8.84 7.56006 6.44C7.56006 3.99 9.54006 2 12.0001 2C14.4501 2 16.4401 3.99 16.4401 6.44C16.4301 8.84 14.5401 10.79 12.1601 10.87Z" stroke="inherit" stroke-linecap="round" stroke-linejoin="round"/>
<path d="M7.15997 14.56C4.73997 16.18 4.73997 18.82 7.15997 20.43C9.90997 22.27 14.42 22.27 17.17 20.43C19.59 18.81 19.59 16.17 17.17 14.56C14.43 12.73 9.91997 12.73 7.15997 14.56Z" stroke="inherit" stroke-linecap="round" stroke-linejoin="round"/>
</symbol>
<symbol id="star" viewBox="0 0 24 24" fill="none" xmlns="http://www.w3.org/2000/svg">
<path fill-rule="evenodd" clip-rule="evenodd" d="M10.9301 3.84683C10.93 3.84702 10.9302 3.84664 10.9301 3.84683L9.17203 7.36294C8.98469 7.74378 8.67178 8.0692 8.35042 8.30747C8.02813 8.54644 7.62764 8.74945 7.21553 8.81943L7.21289 8.81988L4.02327 9.34981C4.02314 9.34983 4.02339 9.34979 4.02327 9.34981C3.13367 9.49816 2.84387 9.84851 2.77693 10.0582C2.70974 10.2685 2.7433 10.7227 3.3803 11.3597L5.8603 13.8397C6.18269 14.1621 6.39834 14.5932 6.51726 15.0086C6.63627 15.4244 6.68078 15.9025 6.58181 16.344L6.5807 16.349L5.87068 19.419C5.60626 20.5617 5.87372 20.9788 6.00954 21.0779C6.14596 21.1774 6.62632 21.305 7.6372 20.705L10.6328 18.9317C11.0487 18.6897 11.5468 18.59 12.0037 18.59C12.4598 18.59 12.9581 18.6894 13.372 18.9346C13.3719 18.9346 13.3721 18.9347 13.372 18.9346L16.3614 20.7043C16.3612 20.7041 16.3616 20.7044 16.3614 20.7043C17.3805 21.3061 17.8604 21.1791 17.9944 21.0815C18.1271 20.9847 18.3945 20.5702 18.1291 19.4184L17.4181 16.3441C17.3191 15.9025 17.3637 15.4244 17.4827 15.0086C17.6016 14.5932 17.8172 14.1621 18.1396 13.8397L20.6196 11.3597L20.6215 11.3579C21.2626 10.721 21.2942 10.2681 21.2272 10.0595C21.1596 9.84925 20.8674 9.49835 19.977 9.34987C19.9769 9.34985 19.9772 9.34989 19.977 9.34987L16.787 8.81987C16.3707 8.75048 15.9671 8.54824 15.6422 8.30851C15.3186 8.06977 15.0054 7.74405 14.8179 7.363L13.0584 3.84402C12.6377 2.998 12.21 2.82751 11.9987 2.82751C11.7861 2.82751 11.3558 3.00015 10.9301 3.84683ZM14.4012 3.17535C13.8719 2.11171 13.0447 1.32751 11.9987 1.32751C10.9539 1.32751 10.1241 2.11037 9.58985 3.1732L7.82915 6.6946L7.82642 6.70011C7.77359 6.80797 7.64731 6.96146 7.45702 7.10256C7.26737 7.24317 7.0834 7.32012 6.96547 7.34042C6.96511 7.34048 6.96476 7.34054 6.96441 7.3406L3.77705 7.87016C2.62694 8.06184 1.66106 8.62155 1.34801 9.60187C1.03519 10.5815 1.49663 11.5973 2.31964 12.4203L4.79964 14.9003C4.89724 14.998 5.0066 15.1818 5.07518 15.4214C5.14334 15.6595 5.1491 15.8755 5.11856 16.014C5.11842 16.0147 5.11827 16.0153 5.11813 16.016L4.40928 19.0809C4.40927 19.081 4.40928 19.0809 4.40928 19.0809C4.11373 20.3582 4.21624 21.6263 5.12539 22.2896C6.03398 22.9526 7.27361 22.6651 8.40273 21.995L11.3871 20.2283C11.3878 20.2279 11.3884 20.2276 11.389 20.2272C11.5232 20.1497 11.7443 20.09 12.0037 20.09C12.265 20.09 12.4816 20.1505 12.6076 20.2252L15.5979 21.9954C16.7284 22.6632 17.9695 22.9559 18.878 22.2936C19.7878 21.6303 19.8854 20.3599 19.5908 19.0816L18.8818 16.016C18.8817 16.0153 18.8815 16.0147 18.8814 16.014C18.8508 15.8755 18.8566 15.6595 18.9248 15.4214C18.9933 15.1818 19.1027 14.998 19.2003 14.9003L21.6785 12.4222C21.6788 12.4218 21.6792 12.4215 21.6795 12.4211C22.5077 11.5982 22.9706 10.5815 22.6552 9.60051C22.3403 8.6208 21.3726 8.06178 20.2233 7.87022L17.0333 7.34022C17.0331 7.3402 17.0334 7.34024 17.0333 7.34022M14.4012 3.17535C14.4011 3.17513 14.4013 3.17557 14.4012 3.17535V3.17535Z" fill="#666666"/>
</symbol>
<symbol id="video" viewBox="0 0 24 24" fill="none" xmlns="http://www.w3.org/2000/svg">
<path d="M12 22C17.5228 22 22 17.5228 22 12C22 6.47715 17.5228 2 12 2C6.47715 2 2 6.47715 2 12C2 17.5228 6.47715 22 12 22Z" stroke="#666666" stroke-width="1.5" stroke-linecap="round" stroke-linejoin="round"/>
<path d="M9.1001 12V10.52C9.1001 8.60999 10.4501 7.83999 12.1001 8.78999L13.3801 9.52999L14.6601 10.27C16.3101 11.22 16.3101 12.78 14.6601 13.73L13.3801 14.47L12.1001 15.21C10.4501 16.16 9.1001 15.38 9.1001 13.48V12Z" stroke="#666666" stroke-width="1.5" stroke-miterlimit="10" stroke-linecap="round" stroke-linejoin="round"/>
</symbol>
<symbol id="activity" viewBox="0 0 24 24" fill="none" xmlns="http://www.w3.org/2000/svg">
<path d="M15 22.75H9C3.57 22.75 1.25 20.43 1.25 15V9C1.25 3.57 3.57 1.25 9 1.25H15C20.43 1.25 22.75 3.57 22.75 9V15C22.75 20.43 20.43 22.75 15 22.75ZM9 2.75C4.39 2.75 2.75 4.39 2.75 9V15C2.75 19.61 4.39 21.25 9 21.25H15C19.61 21.25 21.25 19.61 21.25 15V9C21.25 4.39 19.61 2.75 15 2.75H9Z" fill="#292D32"/>
<path d="M7.33011 15.24C7.17011 15.24 7.01011 15.19 6.87011 15.08C6.54011 14.83 6.48011 14.36 6.73011 14.03L9.11011 10.94C9.40011 10.57 9.81011 10.33 10.2801 10.27C10.7401 10.21 11.2101 10.34 11.5801 10.63L13.4101 12.07C13.4801 12.13 13.5501 12.13 13.6001 12.12C13.6401 12.12 13.7101 12.1 13.7701 12.02L16.0801 9.04001C16.3301 8.71001 16.8101 8.65001 17.1301 8.91001C17.4601 9.16001 17.5201 9.63001 17.2601 9.96001L14.9501 12.94C14.6601 13.31 14.2501 13.55 13.7801 13.6C13.3101 13.66 12.8501 13.53 12.4801 13.24L10.6501 11.8C10.5801 11.74 10.5001 11.74 10.4601 11.75C10.4201 11.75 10.3501 11.77 10.2901 11.85L7.91011 14.94C7.78011 15.14 7.56011 15.24 7.33011 15.24Z" fill="#292D32"/>
</symbol>
<symbol id="plus" viewBox="0 0 24 24" fill="none" xmlns="http://www.w3.org/2000/svg">
<path d="M18 12.75H6C5.59 12.75 5.25 12.41 5.25 12C5.25 11.59 5.59 11.25 6 11.25H18C18.41 11.25 18.75 11.59 18.75 12C18.75 12.41 18.41 12.75 18 12.75Z" fill="#626266"/>
<path d="M12 18.75C11.59 18.75 11.25 18.41 11.25 18V6C11.25 5.59 11.59 5.25 12 5.25C12.41 5.25 12.75 5.59 12.75 6V18C12.75 18.41 12.41 18.75 12 18.75Z" fill="#626266"/>
</symbol>
<symbol id="arrow-down-long" viewBox="0 0 24 24" fill="none" xmlns="http://www.w3.org/2000/svg">
<path d="M12.0001 21.25C11.8101 21.25 11.6201 21.18 11.4701 21.03L5.40012 14.96C5.11012 14.67 5.11012 14.19 5.40012 13.9C5.69012 13.61 6.17012 13.61 6.46012 13.9L12.0001 19.44L17.5401 13.9C17.8301 13.61 18.3101 13.61 18.6001 13.9C18.8901 14.19 18.8901 14.67 18.6001 14.96L12.5301 21.03C12.3801 21.18 12.1901 21.25 12.0001 21.25Z" fill="#292D32"/>
<path d="M12 21.08C11.59 21.08 11.25 20.74 11.25 20.33V3.5C11.25 3.09 11.59 2.75 12 2.75C12.41 2.75 12.75 3.09 12.75 3.5V20.33C12.75 20.74 12.41 21.08 12 21.08Z" fill="#292D32"/>
</symbol>
<symbol id="arrow-down-outline" viewBox="0 0 24 24" fill="none" xmlns="http://www.w3.org/2000/svg">
<path d="M12 16.8C11.3 16.8 10.6 16.53 10.07 16L3.55002 9.48001C3.26002 9.19001 3.26002 8.71001 3.55002 8.42001C3.84002 8.13001 4.32002 8.13001 4.61002 8.42001L11.13 14.94C11.61 15.42 12.39 15.42 12.87 14.94L19.39 8.42001C19.68 8.13001 20.16 8.13001 20.45 8.42001C20.74 8.71001 20.74 9.19001 20.45 9.48001L13.93 16C13.4 16.53 12.7 16.8 12 16.8Z" fill="#898A8F"/>
</symbol>
<symbol id="arrow-left-outline" viewBox="0 0 24 24" fill="none" xmlns="http://www.w3.org/2000/svg">
<path d="M15 20.67C14.81 20.67 14.62 20.6 14.47 20.45L7.95003 13.93C6.89003 12.87 6.89003 11.13 7.95003 10.07L14.47 3.55002C14.76 3.26002 15.24 3.26002 15.53 3.55002C15.82 3.84002 15.82 4.32002 15.53 4.61002L9.01003 11.13C8.53003 11.61 8.53003 12.39 9.01003 12.87L15.53 19.39C15.82 19.68 15.82 20.16 15.53 20.45C15.38 20.59 15.19 20.67 15 20.67Z" fill="#292D32"/>
</symbol>
<symbol id="arrow-right-long" viewBox="0 0 24 24" fill="none" xmlns="http://www.w3.org/2000/svg">
<path d="M14.4301 18.82C14.2401 18.82 14.0501 18.75 13.9001 18.6C13.6101 18.31 13.6101 17.83 13.9001 17.54L19.4401 12L13.9001 6.46C13.6101 6.17 13.6101 5.69 13.9001 5.4C14.1901 5.11 14.6701 5.11 14.9601 5.4L21.0301 11.47C21.3201 11.76 21.3201 12.24 21.0301 12.53L14.9601 18.6C14.8101 18.75 14.6201 18.82 14.4301 18.82Z" fill="#626266"/>
<path d="M20.33 12.75H3.5C3.09 12.75 2.75 12.41 2.75 12C2.75 11.59 3.09 11.25 3.5 11.25H20.33C20.74 11.25 21.08 11.59 21.08 12C21.08 12.41 20.74 12.75 20.33 12.75Z" fill="#626266"/>
</symbol>
<symbol id="arrow-right-outline" viewBox="0 0 24 24" fill="none" xmlns="http://www.w3.org/2000/svg">
<path d="M7.90256 3.33255C8.09256 3.33254 8.28256 3.40254 8.43256 3.55254L14.9526 10.0725C16.0126 11.1325 16.0126 12.8725 14.9526 13.9325L8.43256 20.4525C8.14256 20.7425 7.66256 20.7425 7.37256 20.4525C7.08256 20.1625 7.08256 19.6825 7.37256 19.3925L13.8926 12.8725C14.3726 12.3925 14.3726 11.6125 13.8926 11.1325L7.37256 4.61255C7.08256 4.32254 7.08256 3.84255 7.37256 3.55254C7.52256 3.41254 7.71256 3.33255 7.90256 3.33255Z" fill="#292D32"/>
</symbol>
<symbol id="arrow-swap" viewBox="0 0 24 24" fill="none" xmlns="http://www.w3.org/2000/svg">
<path d="M9.00994 21.2501C8.81994 21.2501 8.62994 21.1801 8.47994 21.0301L3.46994 16.0201C3.17994 15.7301 3.17994 15.2501 3.46994 14.9601C3.75994 14.6701 4.23994 14.6701 4.52994 14.9601L9.53994 19.9701C9.82994 20.2601 9.82994 20.7401 9.53994 21.0301C9.38994 21.1701 9.19994 21.2501 9.00994 21.2501Z" fill="#292D32"/>
<path d="M9.00977 21.25C8.59977 21.25 8.25977 20.91 8.25977 20.5V3.5C8.25977 3.09 8.59977 2.75 9.00977 2.75C9.41977 2.75 9.75977 3.09 9.75977 3.5V20.5C9.75977 20.91 9.41977 21.25 9.00977 21.25Z" fill="#292D32"/>
<path d="M20.0099 9.25994C19.8199 9.25994 19.6299 9.18994 19.4799 9.03994L14.4699 4.02994C14.1799 3.73994 14.1799 3.25994 14.4699 2.96994C14.7599 2.67994 15.2399 2.67994 15.5299 2.96994L20.5399 7.97994C20.8299 8.26994 20.8299 8.74994 20.5399 9.03994C20.3899 9.18994 20.1999 9.25994 20.0099 9.25994Z" fill="#292D32"/>
<path d="M14.9902 21.25C14.5802 21.25 14.2402 20.91 14.2402 20.5V3.5C14.2402 3.09 14.5802 2.75 14.9902 2.75C15.4002 2.75 15.7402 3.09 15.7402 3.5V20.5C15.7402 20.91 15.4102 21.25 14.9902 21.25Z" fill="#292D32"/>
</symbol>
<symbol id="arrow-up-long" viewBox="0 0 24 24" fill="none" xmlns="http://www.w3.org/2000/svg">
<path d="M18.0701 10.3199C17.8801 10.3199 17.6901 10.2499 17.5401 10.0999L12.0001 4.55994L6.46012 10.0999C6.17012 10.3899 5.69012 10.3899 5.40012 10.0999C5.11012 9.80994 5.11012 9.32994 5.40012 9.03994L11.4701 2.96994C11.7601 2.67994 12.2401 2.67994 12.5301 2.96994L18.6001 9.03994C18.8901 9.32994 18.8901 9.80994 18.6001 10.0999C18.4601 10.2499 18.2601 10.3199 18.0701 10.3199Z" fill="#292D32"/>
<path d="M12 21.25C11.59 21.25 11.25 20.91 11.25 20.5V3.67004C11.25 3.26004 11.59 2.92004 12 2.92004C12.41 2.92004 12.75 3.26004 12.75 3.67004V20.5C12.75 20.91 12.41 21.25 12 21.25Z" fill="#292D32"/>
</symbol>
<symbol id="bitcoin" viewBox="0 0 24 24" fill="none" xmlns="http://www.w3.org/2000/svg">
<path d="M14.1998 12.75H8.77979C8.36979 12.75 8.02979 12.41 8.02979 12V7.67004C8.02979 7.26004 8.36979 6.92004 8.77979 6.92004H14.1998C15.7498 6.92004 17.1198 8.28004 17.1198 9.84004C17.1198 11.44 15.8098 12.75 14.1998 12.75ZM9.52979 11.25H14.1998C14.9798 11.25 15.6198 10.61 15.6198 9.83004C15.6198 9.17004 14.9998 8.41004 14.1998 8.41004H9.52979V11.25Z" fill="black"/>
<path d="M14.9698 17.08H8.77979C8.36979 17.08 8.02979 16.74 8.02979 16.33V12C8.02979 11.59 8.36979 11.25 8.77979 11.25H14.9698C16.7498 11.25 18.1998 12.56 18.1998 14.17C18.1998 15.78 16.7498 17.08 14.9698 17.08ZM9.52979 15.58H14.9698C15.9198 15.58 16.6998 14.94 16.6998 14.16C16.6998 13.38 15.9298 12.74 14.9698 12.74H9.52979V15.58Z" fill="black"/>
<path d="M12.5698 19.25C12.1598 19.25 11.8198 18.91 11.8198 18.5V16.33C11.8198 15.92 12.1598 15.58 12.5698 15.58C12.9798 15.58 13.3198 15.92 13.3198 16.33V18.5C13.3198 18.91 12.9898 19.25 12.5698 19.25Z" fill="black"/>
<path d="M9.87012 19.25C9.46012 19.25 9.12012 18.91 9.12012 18.5V16.33C9.12012 15.92 9.46012 15.58 9.87012 15.58C10.2801 15.58 10.6201 15.92 10.6201 16.33V18.5C10.6201 18.91 10.2801 19.25 9.87012 19.25Z" fill="black"/>
<path d="M12.5698 8.42C12.1598 8.42 11.8198 8.08 11.8198 7.67V5.5C11.8198 5.09 12.1598 4.75 12.5698 4.75C12.9798 4.75 13.3198 5.09 13.3198 5.5V7.67C13.3198 8.08 12.9898 8.42 12.5698 8.42Z" fill="black"/>
<path d="M9.87012 8.42C9.46012 8.42 9.12012 8.08 9.12012 7.67V5.5C9.12012 5.09 9.46012 4.75 9.87012 4.75C10.2801 4.75 10.6201 5.09 10.6201 5.5V7.67C10.6201 8.08 10.2801 8.42 9.87012 8.42Z" fill="black"/>
<path d="M10.8398 8.42004H7.0498C6.6398 8.42004 6.2998 8.08004 6.2998 7.67004C6.2998 7.26004 6.6398 6.92004 7.0498 6.92004H10.8398C11.2498 6.92004 11.5898 7.26004 11.5898 7.67004C11.5898 8.08004 11.2598 8.42004 10.8398 8.42004Z" fill="black"/>
<path d="M10.8398 17.08H7.0498C6.6398 17.08 6.2998 16.74 6.2998 16.33C6.2998 15.92 6.6398 15.58 7.0498 15.58H10.8398C11.2498 15.58 11.5898 15.92 11.5898 16.33C11.5898 16.74 11.2598 17.08 10.8398 17.08Z" fill="black"/>
</symbol>
<symbol id="calendar" viewBox="0 0 24 24" fill="none" xmlns="http://www.w3.org/2000/svg">
<path d="M8 5.75C7.59 5.75 7.25 5.41 7.25 5V2C7.25 1.59 7.59 1.25 8 1.25C8.41 1.25 8.75 1.59 8.75 2V5C8.75 5.41 8.41 5.75 8 5.75Z" fill="#292D32"/>
<path d="M16 5.75C15.59 5.75 15.25 5.41 15.25 5V2C15.25 1.59 15.59 1.25 16 1.25C16.41 1.25 16.75 1.59 16.75 2V5C16.75 5.41 16.41 5.75 16 5.75Z" fill="#292D32"/>
<path d="M20.5 9.83997H3.5C3.09 9.83997 2.75 9.49997 2.75 9.08997C2.75 8.67997 3.09 8.33997 3.5 8.33997H20.5C20.91 8.33997 21.25 8.67997 21.25 9.08997C21.25 9.49997 20.91 9.83997 20.5 9.83997Z" fill="#292D32"/>
<path d="M16 22.75H8C4.35 22.75 2.25 20.65 2.25 17V8.5C2.25 4.85 4.35 2.75 8 2.75H16C19.65 2.75 21.75 4.85 21.75 8.5V17C21.75 20.65 19.65 22.75 16 22.75ZM8 4.25C5.14 4.25 3.75 5.64 3.75 8.5V17C3.75 19.86 5.14 21.25 8 21.25H16C18.86 21.25 20.25 19.86 20.25 17V8.5C20.25 5.64 18.86 4.25 16 4.25H8Z" fill="#292D32"/>
<path d="M8.5 14.5C8.37 14.5 8.24 14.47 8.12 14.42C8 14.37 7.89001 14.3 7.79001 14.21C7.70001 14.11 7.62999 14 7.57999 13.88C7.52999 13.76 7.5 13.63 7.5 13.5C7.5 13.24 7.61001 12.98 7.79001 12.79C7.89001 12.7 8 12.63 8.12 12.58C8.3 12.5 8.50001 12.48 8.70001 12.52C8.76001 12.53 8.82 12.55 8.88 12.58C8.94 12.6 9 12.63 9.06 12.67C9.11 12.71 9.15999 12.75 9.20999 12.79C9.24999 12.84 9.29999 12.89 9.32999 12.94C9.36999 13 9.40001 13.06 9.42001 13.12C9.45001 13.18 9.47001 13.24 9.48001 13.3C9.49001 13.37 9.5 13.43 9.5 13.5C9.5 13.76 9.38999 14.02 9.20999 14.21C9.01999 14.39 8.76 14.5 8.5 14.5Z" fill="#292D32"/>
<path d="M12 14.5C11.74 14.5 11.48 14.39 11.29 14.21C11.25 14.16 11.21 14.11 11.17 14.06C11.13 14 11.1 13.94 11.08 13.88C11.05 13.82 11.03 13.76 11.02 13.7C11.01 13.63 11 13.57 11 13.5C11 13.37 11.03 13.24 11.08 13.12C11.13 13 11.2 12.89 11.29 12.79C11.57 12.51 12.02 12.42 12.38 12.58C12.51 12.63 12.61 12.7 12.71 12.79C12.89 12.98 13 13.24 13 13.5C13 13.57 12.99 13.63 12.98 13.7C12.97 13.76 12.95 13.82 12.92 13.88C12.9 13.94 12.87 14 12.83 14.06C12.79 14.11 12.75 14.16 12.71 14.21C12.61 14.3 12.51 14.37 12.38 14.42C12.26 14.47 12.13 14.5 12 14.5Z" fill="#292D32"/>
<path d="M8.5 18C8.37 18 8.24 17.97 8.12 17.92C8 17.87 7.89001 17.8 7.79001 17.71C7.70001 17.61 7.62999 17.51 7.57999 17.38C7.52999 17.26 7.5 17.13 7.5 17C7.5 16.74 7.61001 16.48 7.79001 16.29C7.89001 16.2 8 16.13 8.12 16.08C8.49 15.92 8.92999 16.01 9.20999 16.29C9.24999 16.34 9.29999 16.39 9.32999 16.44C9.36999 16.5 9.40001 16.56 9.42001 16.62C9.45001 16.68 9.47001 16.74 9.48001 16.81C9.49001 16.87 9.5 16.94 9.5 17C9.5 17.26 9.38999 17.52 9.20999 17.71C9.01999 17.89 8.76 18 8.5 18Z" fill="#292D32"/>
</symbol>
<symbol id="calendar-edit" viewBox="0 0 24 24" fill="none" xmlns="http://www.w3.org/2000/svg">
<path d="M8 5.75C7.59 5.75 7.25 5.41 7.25 5V2C7.25 1.59 7.59 1.25 8 1.25C8.41 1.25 8.75 1.59 8.75 2V5C8.75 5.41 8.41 5.75 8 5.75Z" fill="#292D32"/>
<path d="M16 5.75C15.59 5.75 15.25 5.41 15.25 5V2C15.25 1.59 15.59 1.25 16 1.25C16.41 1.25 16.75 1.59 16.75 2V5C16.75 5.41 16.41 5.75 16 5.75Z" fill="#292D32"/>
<path d="M8.5 14.5C8.37 14.5 8.24 14.47 8.12 14.42C7.99 14.37 7.89001 14.3 7.79001 14.21C7.61001 14.02 7.5 13.76 7.5 13.5C7.5 13.24 7.61001 12.98 7.79001 12.79C7.89001 12.7 8 12.63 8.12 12.58C8.36 12.48 8.64 12.48 8.88 12.58C9 12.63 9.10999 12.7 9.20999 12.79C9.24999 12.84 9.29999 12.89 9.32999 12.94C9.36999 13 9.40001 13.06 9.42001 13.12C9.45001 13.18 9.47001 13.24 9.48001 13.3C9.49001 13.37 9.5 13.44 9.5 13.5C9.5 13.76 9.38999 14.02 9.20999 14.21C9.10999 14.3 9 14.37 8.88 14.42C8.76 14.47 8.63 14.5 8.5 14.5Z" fill="#292D32"/>
<path d="M12 14.4999C11.87 14.4999 11.74 14.47 11.62 14.42C11.49 14.37 11.39 14.2999 11.29 14.2099C11.11 14.0199 11 13.7599 11 13.4999C11 13.4399 11.01 13.3699 11.02 13.2999C11.03 13.2399 11.05 13.1799 11.08 13.1199C11.1 13.0599 11.13 12.9999 11.17 12.9399C11.21 12.8899 11.25 12.84 11.29 12.79C11.66 12.42 12.33 12.42 12.71 12.79C12.75 12.84 12.79 12.8899 12.83 12.9399C12.87 12.9999 12.9 13.0599 12.92 13.1199C12.95 13.1799 12.97 13.2399 12.98 13.2999C12.99 13.3699 13 13.4399 13 13.4999C13 13.7599 12.89 14.0199 12.71 14.2099C12.52 14.3899 12.27 14.4999 12 14.4999Z" fill="#292D32"/>
<path d="M8.5 18C8.37 18 8.24 17.97 8.12 17.92C8 17.87 7.89001 17.8 7.79001 17.71C7.61001 17.52 7.5 17.26 7.5 17C7.5 16.94 7.50999 16.87 7.51999 16.81C7.52999 16.74 7.54999 16.68 7.57999 16.62C7.59999 16.56 7.63001 16.5 7.67001 16.44C7.70001 16.39 7.75001 16.34 7.79001 16.29C7.89001 16.2 8 16.13 8.12 16.08C8.36 15.98 8.64 15.98 8.88 16.08C9 16.13 9.10999 16.2 9.20999 16.29C9.24999 16.34 9.29999 16.39 9.32999 16.44C9.36999 16.5 9.40001 16.56 9.42001 16.62C9.45001 16.68 9.47001 16.74 9.48001 16.81C9.49001 16.87 9.5 16.94 9.5 17C9.5 17.26 9.38999 17.52 9.20999 17.71C9.10999 17.8 9 17.87 8.88 17.92C8.76 17.97 8.63 18 8.5 18Z" fill="#292D32"/>
<path d="M20.5 9.83997H3.5C3.09 9.83997 2.75 9.49997 2.75 9.08997C2.75 8.67997 3.09 8.33997 3.5 8.33997H20.5C20.91 8.33997 21.25 8.67997 21.25 9.08997C21.25 9.49997 20.91 9.83997 20.5 9.83997Z" fill="#292D32"/>
<path d="M15.8201 22.78C15.4401 22.78 15.0801 22.64 14.8201 22.38C14.5101 22.07 14.3701 21.62 14.4401 21.15L14.6301 19.8C14.6801 19.45 14.8901 19.03 15.1401 18.78L18.68 15.24C19.16 14.76 19.6301 14.51 20.1401 14.46C20.7701 14.4 21.38 14.66 21.96 15.24C22.57 15.85 23.39 17.09 21.96 18.52L18.4201 22.06C18.1701 22.31 17.75 22.52 17.4 22.57L16.05 22.76C15.97 22.77 15.9001 22.78 15.8201 22.78ZM20.31 15.95C20.3 15.95 20.29 15.95 20.28 15.95C20.14 15.96 19.95 16.09 19.74 16.3L16.2001 19.84C16.1701 19.87 16.12 19.97 16.12 20.01L15.9401 21.26L17.1901 21.08C17.2301 21.07 17.33 21.02 17.36 20.99L20.9 17.45C21.34 17.01 21.4 16.79 20.9 16.29C20.74 16.14 20.51 15.95 20.31 15.95Z" fill="#292D32"/>
<path d="M20.9201 19.2499C20.8501 19.2499 20.7801 19.2399 20.7201 19.2199C19.4001 18.8499 18.3501 17.7999 17.9801 16.4799C17.8701 16.0799 18.1001 15.6699 18.5001 15.5499C18.9001 15.4399 19.3101 15.6699 19.4301 16.0699C19.6601 16.8899 20.3101 17.5399 21.1301 17.7699C21.5301 17.8799 21.7601 18.2999 21.6501 18.6999C21.5501 19.0299 21.2501 19.2499 20.9201 19.2499Z" fill="#292D32"/>
<path d="M12 22.75H8C4.35 22.75 2.25 20.65 2.25 17V8.5C2.25 4.85 4.35 2.75 8 2.75H16C19.65 2.75 21.75 4.85 21.75 8.5V12C21.75 12.41 21.41 12.75 21 12.75C20.59 12.75 20.25 12.41 20.25 12V8.5C20.25 5.64 18.86 4.25 16 4.25H8C5.14 4.25 3.75 5.64 3.75 8.5V17C3.75 19.86 5.14 21.25 8 21.25H12C12.41 21.25 12.75 21.59 12.75 22C12.75 22.41 12.41 22.75 12 22.75Z" fill="#292D32"/>
</symbol>
<symbol id="camera" viewBox="0 0 24 24" fill="none" xmlns="http://www.w3.org/2000/svg">
<path d="M17.2402 22.75H6.76017C3.96017 22.75 2.18017 21.08 2.02017 18.29L1.50017 10.04C1.42017 8.79 1.85017 7.59 2.71017 6.68C3.56017 5.77 4.76017 5.25 6.00017 5.25C6.32017 5.25 6.63017 5.06 6.78017 4.76L7.50017 3.33C8.09017 2.16 9.57017 1.25 10.8602 1.25H13.1502C14.4402 1.25 15.9102 2.16 16.5002 3.32L17.2202 4.78C17.3702 5.06 17.6702 5.25 18.0002 5.25C19.2402 5.25 20.4402 5.77 21.2902 6.68C22.1502 7.6 22.5802 8.79 22.5002 10.04L21.9802 18.3C21.8002 21.13 20.0702 22.75 17.2402 22.75ZM10.8602 2.75C10.1202 2.75 9.18017 3.33 8.84017 4L8.12017 5.44C7.70017 6.25 6.89017 6.75 6.00017 6.75C5.16017 6.75 4.38017 7.09 3.80017 7.7C3.23017 8.31 2.94017 9.11 3.00017 9.94L3.52017 18.2C3.64017 20.22 4.73017 21.25 6.76017 21.25H17.2402C19.2602 21.25 20.3502 20.22 20.4802 18.2L21.0002 9.94C21.0502 9.11 20.7702 8.31 20.2002 7.7C19.6202 7.09 18.8402 6.75 18.0002 6.75C17.1102 6.75 16.3002 6.25 15.8802 5.46L15.1502 4C14.8202 3.34 13.8802 2.76 13.1402 2.76H10.8602V2.75Z" fill="#292D32"/>
<path d="M13.5 8.75H10.5C10.09 8.75 9.75 8.41 9.75 8C9.75 7.59 10.09 7.25 10.5 7.25H13.5C13.91 7.25 14.25 7.59 14.25 8C14.25 8.41 13.91 8.75 13.5 8.75Z" fill="#292D32"/>
<path d="M12 18.75C9.79 18.75 8 16.96 8 14.75C8 12.54 9.79 10.75 12 10.75C14.21 10.75 16 12.54 16 14.75C16 16.96 14.21 18.75 12 18.75ZM12 12.25C10.62 12.25 9.5 13.37 9.5 14.75C9.5 16.13 10.62 17.25 12 17.25C13.38 17.25 14.5 16.13 14.5 14.75C14.5 13.37 13.38 12.25 12 12.25Z" fill="#292D32"/>
</symbol>
<symbol id="candle" viewBox="0 0 24 24" fill="none" xmlns="http://www.w3.org/2000/svg">
<path d="M6.5 22.75C6.09 22.75 5.75 22.41 5.75 22V15C5.75 14.59 6.09 14.25 6.5 14.25C6.91 14.25 7.25 14.59 7.25 15V22C7.25 22.41 6.91 22.75 6.5 22.75Z" fill="#626266"/>
<path d="M6.5 5.75C6.09 5.75 5.75 5.41 5.75 5V2C5.75 1.59 6.09 1.25 6.5 1.25C6.91 1.25 7.25 1.59 7.25 2V5C7.25 5.41 6.91 5.75 6.5 5.75Z" fill="#626266"/>
<path d="M17.5 22.75C17.09 22.75 16.75 22.41 16.75 22V19C16.75 18.59 17.09 18.25 17.5 18.25C17.91 18.25 18.25 18.59 18.25 19V22C18.25 22.41 17.91 22.75 17.5 22.75Z" fill="#626266"/>
<path d="M17.5 9.75C17.09 9.75 16.75 9.41 16.75 9V2C16.75 1.59 17.09 1.25 17.5 1.25C17.91 1.25 18.25 1.59 18.25 2V9C18.25 9.41 17.91 9.75 17.5 9.75Z" fill="#626266"/>
<path d="M7.5 15.75H5.5C3.78 15.75 2.75 14.72 2.75 13V7C2.75 5.28 3.78 4.25 5.5 4.25H7.5C9.22 4.25 10.25 5.28 10.25 7V13C10.25 14.72 9.22 15.75 7.5 15.75ZM5.5 5.75C4.61 5.75 4.25 6.11 4.25 7V13C4.25 13.89 4.61 14.25 5.5 14.25H7.5C8.39 14.25 8.75 13.89 8.75 13V7C8.75 6.11 8.39 5.75 7.5 5.75H5.5Z" fill="#626266"/>
<path d="M18.5 19.75H16.5C14.78 19.75 13.75 18.72 13.75 17V11C13.75 9.28 14.78 8.25 16.5 8.25H18.5C20.22 8.25 21.25 9.28 21.25 11V17C21.25 18.72 20.22 19.75 18.5 19.75ZM16.5 9.75C15.61 9.75 15.25 10.11 15.25 11V17C15.25 17.89 15.61 18.25 16.5 18.25H18.5C19.39 18.25 19.75 17.89 19.75 17V11C19.75 10.11 19.39 9.75 18.5 9.75H16.5Z" fill="#626266"/>
</symbol>
<symbol id="clock" viewBox="0 0 24 24" fill="none" xmlns="http://www.w3.org/2000/svg">
<path d="M12 22.75C6.07 22.75 1.25 17.93 1.25 12C1.25 6.07 6.07 1.25 12 1.25C17.93 1.25 22.75 6.07 22.75 12C22.75 17.93 17.93 22.75 12 22.75ZM12 2.75C6.9 2.75 2.75 6.9 2.75 12C2.75 17.1 6.9 21.25 12 21.25C17.1 21.25 21.25 17.1 21.25 12C21.25 6.9 17.1 2.75 12 2.75Z" fill="#292D32"/>
<path d="M15.7099 15.93C15.5799 15.93 15.4499 15.9 15.3299 15.82L12.2299 13.97C11.4599 13.51 10.8899 12.5 10.8899 11.61V7.51001C10.8899 7.10001 11.2299 6.76001 11.6399 6.76001C12.0499 6.76001 12.3899 7.10001 12.3899 7.51001V11.61C12.3899 11.97 12.6899 12.5 12.9999 12.68L16.0999 14.53C16.4599 14.74 16.5699 15.2 16.3599 15.56C16.2099 15.8 15.9599 15.93 15.7099 15.93Z" fill="#292D32"/>
</symbol>
<symbol id="copy" viewBox="0 0 24 24" fill="none" xmlns="http://www.w3.org/2000/svg">
<path d="M11.1 22.75H6.9C2.99 22.75 1.25 21.01 1.25 17.1V12.9C1.25 8.99 2.99 7.25 6.9 7.25H11.1C15.01 7.25 16.75 8.99 16.75 12.9V17.1C16.75 21.01 15.01 22.75 11.1 22.75ZM6.9 8.75C3.8 8.75 2.75 9.8 2.75 12.9V17.1C2.75 20.2 3.8 21.25 6.9 21.25H11.1C14.2 21.25 15.25 20.2 15.25 17.1V12.9C15.25 9.8 14.2 8.75 11.1 8.75H6.9Z" fill="#626266"/>
<path d="M17.1 16.75H16C15.59 16.75 15.25 16.41 15.25 16V12.9C15.25 9.8 14.2 8.75 11.1 8.75H8C7.59 8.75 7.25 8.41 7.25 8V6.9C7.25 2.99 8.99 1.25 12.9 1.25H17.1C21.01 1.25 22.75 2.99 22.75 6.9V11.1C22.75 15.01 21.01 16.75 17.1 16.75ZM16.75 15.25H17.1C20.2 15.25 21.25 14.2 21.25 11.1V6.9C21.25 3.8 20.2 2.75 17.1 2.75H12.9C9.8 2.75 8.75 3.8 8.75 6.9V7.25H11.1C15.01 7.25 16.75 8.99 16.75 12.9V15.25Z" fill="#626266"/>
</symbol>
<symbol id="dollar" viewBox="0 0 24 24" fill="none" xmlns="http://www.w3.org/2000/svg">
<path d="M13.4002 17.42H10.8902C9.25016 17.42 7.92016 16.04 7.92016 14.34C7.92016 13.93 8.26016 13.59 8.67016 13.59C9.08016 13.59 9.42016 13.93 9.42016 14.34C9.42016 15.21 10.0802 15.92 10.8902 15.92H13.4002C14.0502 15.92 14.5902 15.34 14.5902 14.64C14.5902 13.77 14.2802 13.6 13.7702 13.42L9.74016 12C8.96016 11.73 7.91016 11.15 7.91016 9.35996C7.91016 7.81996 9.12016 6.57996 10.6002 6.57996H13.1102C14.7502 6.57996 16.0802 7.95996 16.0802 9.65996C16.0802 10.07 15.7402 10.41 15.3302 10.41C14.9202 10.41 14.5802 10.07 14.5802 9.65996C14.5802 8.78996 13.9202 8.07996 13.1102 8.07996H10.6002C9.95016 8.07996 9.41016 8.65996 9.41016 9.35996C9.41016 10.23 9.72016 10.4 10.2302 10.58L14.2602 12C15.0402 12.27 16.0902 12.85 16.0902 14.64C16.0802 16.17 14.8802 17.42 13.4002 17.42Z" fill="#292D32"/>
<path d="M12 18.75C11.59 18.75 11.25 18.41 11.25 18V6C11.25 5.59 11.59 5.25 12 5.25C12.41 5.25 12.75 5.59 12.75 6V18C12.75 18.41 12.41 18.75 12 18.75Z" fill="#292D32"/>
<path d="M15 22.75H9C3.57 22.75 1.25 20.43 1.25 15V9C1.25 3.57 3.57 1.25 9 1.25H15C20.43 1.25 22.75 3.57 22.75 9V15C22.75 20.43 20.43 22.75 15 22.75ZM9 2.75C4.39 2.75 2.75 4.39 2.75 9V15C2.75 19.61 4.39 21.25 9 21.25H15C19.61 21.25 21.25 19.61 21.25 15V9C21.25 4.39 19.61 2.75 15 2.75H9Z" fill="#292D32"/>
</symbol>
<symbol id="edit-square" viewBox="0 0 24 24" fill="none" xmlns="http://www.w3.org/2000/svg">
<path d="M15 22.75H9C3.57 22.75 1.25 20.43 1.25 15V9C1.25 3.57 3.57 1.25 9 1.25H11C11.41 1.25 11.75 1.59 11.75 2C11.75 2.41 11.41 2.75 11 2.75H9C4.39 2.75 2.75 4.39 2.75 9V15C2.75 19.61 4.39 21.25 9 21.25H15C19.61 21.25 21.25 19.61 21.25 15V13C21.25 12.59 21.59 12.25 22 12.25C22.41 12.25 22.75 12.59 22.75 13V15C22.75 20.43 20.43 22.75 15 22.75Z" fill="#292D32"/>
<path d="M8.50008 17.6901C7.89008 17.6901 7.33008 17.4701 6.92008 17.0701C6.43008 16.5801 6.22008 15.8701 6.33008 15.1201L6.76008 12.1101C6.84008 11.5301 7.22008 10.7801 7.63008 10.3701L15.5101 2.49006C17.5001 0.500059 19.5201 0.500059 21.5101 2.49006C22.6001 3.58006 23.0901 4.69006 22.9901 5.80006C22.9001 6.70006 22.4201 7.58006 21.5101 8.48006L13.6301 16.3601C13.2201 16.7701 12.4701 17.1501 11.8901 17.2301L8.88008 17.6601C8.75008 17.6901 8.62008 17.6901 8.50008 17.6901ZM16.5701 3.55006L8.69008 11.4301C8.50008 11.6201 8.28008 12.0601 8.24008 12.3201L7.81008 15.3301C7.77008 15.6201 7.83008 15.8601 7.98008 16.0101C8.13008 16.1601 8.37008 16.2201 8.66008 16.1801L11.6701 15.7501C11.9301 15.7101 12.3801 15.4901 12.5601 15.3001L20.4401 7.42006C21.0901 6.77006 21.4301 6.19006 21.4801 5.65006C21.5401 5.00006 21.2001 4.31006 20.4401 3.54006C18.8401 1.94006 17.7401 2.39006 16.5701 3.55006Z" fill="#292D32"/>
<path d="M19.8501 9.83003C19.7801 9.83003 19.7101 9.82003 19.6501 9.80003C17.0201 9.06003 14.9301 6.97003 14.1901 4.34003C14.0801 3.94003 14.3101 3.53003 14.7101 3.41003C15.1101 3.30003 15.5201 3.53003 15.6301 3.93003C16.2301 6.06003 17.9201 7.75003 20.0501 8.35003C20.4501 8.46003 20.6801 8.88003 20.5701 9.28003C20.4801 9.62003 20.1801 9.83003 19.8501 9.83003Z" fill="#292D32"/>
</symbol>
<symbol id="edit" viewBox="0 0 24 24" fill="none" xmlns="http://www.w3.org/2000/svg">
<path d="M5.53999 19.5201C4.92999 19.5201 4.35999 19.31 3.94999 18.92C3.42999 18.43 3.17999 17.69 3.26999 16.89L3.63999 13.65C3.70999 13.04 4.07999 12.23 4.50999 11.79L12.72 3.10005C14.77 0.930049 16.91 0.870049 19.08 2.92005C21.25 4.97005 21.31 7.11005 19.26 9.28005L11.05 17.97C10.63 18.42 9.84999 18.84 9.23999 18.9401L6.01999 19.49C5.84999 19.5 5.69999 19.5201 5.53999 19.5201ZM15.93 2.91005C15.16 2.91005 14.49 3.39005 13.81 4.11005L5.59999 12.8101C5.39999 13.0201 5.16999 13.5201 5.12999 13.8101L4.75999 17.05C4.71999 17.38 4.79999 17.65 4.97999 17.82C5.15999 17.99 5.42999 18.05 5.75999 18L8.97999 17.4501C9.26999 17.4001 9.74999 17.14 9.94999 16.93L18.16 8.24005C19.4 6.92005 19.85 5.70005 18.04 4.00005C17.24 3.23005 16.55 2.91005 15.93 2.91005Z" fill="#292D32"/>
<path d="M17.3399 10.95C17.3199 10.95 17.2899 10.95 17.2699 10.95C14.1499 10.64 11.6399 8.26997 11.1599 5.16997C11.0999 4.75997 11.3799 4.37997 11.7899 4.30997C12.1999 4.24997 12.5799 4.52997 12.6499 4.93997C13.0299 7.35997 14.9899 9.21997 17.4299 9.45997C17.8399 9.49997 18.1399 9.86997 18.0999 10.28C18.0499 10.66 17.7199 10.95 17.3399 10.95Z" fill="#292D32"/>
<path d="M21 22.75H3C2.59 22.75 2.25 22.41 2.25 22C2.25 21.59 2.59 21.25 3 21.25H21C21.41 21.25 21.75 21.59 21.75 22C21.75 22.41 21.41 22.75 21 22.75Z" fill="#292D32"/>
</symbol>
<symbol id="export" viewBox="0 0 24 24" fill="none" xmlns="http://www.w3.org/2000/svg">
<path d="M12.9999 11.75C12.8099 11.75 12.6199 11.68 12.4699 11.53C12.1799 11.24 12.1799 10.76 12.4699 10.47L20.6699 2.26999C20.9599 1.97999 21.4399 1.97999 21.7299 2.26999C22.0199 2.55999 22.0199 3.03999 21.7299 3.32999L13.5299 11.53C13.3799 11.68 13.1899 11.75 12.9999 11.75Z" fill="#898A8F"/>
<path d="M22.0002 7.55C21.5902 7.55 21.2502 7.21 21.2502 6.8V2.75H17.2002C16.7902 2.75 16.4502 2.41 16.4502 2C16.4502 1.59 16.7902 1.25 17.2002 1.25H22.0002C22.4102 1.25 22.7502 1.59 22.7502 2V6.8C22.7502 7.21 22.4102 7.55 22.0002 7.55Z" fill="#898A8F"/>
<path d="M15 22.75H9C3.57 22.75 1.25 20.43 1.25 15V9C1.25 3.57 3.57 1.25 9 1.25H11C11.41 1.25 11.75 1.59 11.75 2C11.75 2.41 11.41 2.75 11 2.75H9C4.39 2.75 2.75 4.39 2.75 9V15C2.75 19.61 4.39 21.25 9 21.25H15C19.61 21.25 21.25 19.61 21.25 15V13C21.25 12.59 21.59 12.25 22 12.25C22.41 12.25 22.75 12.59 22.75 13V15C22.75 20.43 20.43 22.75 15 22.75Z" fill="#898A8F"/>
</symbol>
<symbol id="global" viewBox="0 0 24 24" fill="none" xmlns="http://www.w3.org/2000/svg">
<path d="M12 22.75C6.07 22.75 1.25 17.93 1.25 12C1.25 6.07 6.07 1.25 12 1.25C17.93 1.25 22.75 6.07 22.75 12C22.75 17.93 17.93 22.75 12 22.75ZM12 2.75C6.9 2.75 2.75 6.9 2.75 12C2.75 17.1 6.9 21.25 12 21.25C17.1 21.25 21.25 17.1 21.25 12C21.25 6.9 17.1 2.75 12 2.75Z" fill="#626266"/>
<path d="M9.00023 21.75H8.00023C7.59023 21.75 7.25023 21.41 7.25023 21C7.25023 20.59 7.57023 20.26 7.98023 20.25C6.41023 14.89 6.41023 9.11 7.98023 3.75C7.57023 3.74 7.25023 3.41 7.25023 3C7.25023 2.59 7.59023 2.25 8.00023 2.25H9.00023C9.24023 2.25 9.47023 2.37 9.61023 2.56C9.75023 2.76 9.79023 3.01 9.71023 3.24C7.83023 8.89 7.83023 15.11 9.71023 20.77C9.79023 21 9.75023 21.25 9.61023 21.45C9.47023 21.63 9.24023 21.75 9.00023 21.75Z" fill="#626266"/>
<path d="M14.9999 21.7501C14.9199 21.7501 14.8399 21.7401 14.7599 21.7101C14.3699 21.5801 14.1499 21.1501 14.2899 20.7601C16.1699 15.1101 16.1699 8.89006 14.2899 3.23006C14.1599 2.84006 14.3699 2.41006 14.7599 2.28006C15.1599 2.15006 15.5799 2.36006 15.7099 2.75006C17.6999 8.71006 17.6999 15.2701 15.7099 21.2201C15.6099 21.5501 15.3099 21.7501 14.9999 21.7501Z" fill="#626266"/>
<path d="M12 17.2C9.21 17.2 6.43 16.81 3.75 16.02C3.74 16.42 3.41 16.75 3 16.75C2.59 16.75 2.25 16.41 2.25 16V15C2.25 14.76 2.37 14.53 2.56 14.39C2.76 14.25 3.01 14.21 3.24 14.29C8.89 16.17 15.12 16.17 20.77 14.29C21 14.21 21.25 14.25 21.45 14.39C21.65 14.53 21.76 14.76 21.76 15V16C21.76 16.41 21.42 16.75 21.01 16.75C20.6 16.75 20.27 16.43 20.26 16.02C17.57 16.81 14.79 17.2 12 17.2Z" fill="#626266"/>
<path d="M20.9998 9.74999C20.9198 9.74999 20.8398 9.73999 20.7598 9.70999C15.1098 7.82999 8.87978 7.82999 3.22978 9.70999C2.82978 9.83999 2.40978 9.62999 2.27978 9.23999C2.15978 8.83999 2.36978 8.41999 2.75978 8.28999C8.71978 6.29999 15.2798 6.29999 21.2298 8.28999C21.6198 8.41999 21.8398 8.84999 21.6998 9.23999C21.6098 9.54999 21.3098 9.74999 20.9998 9.74999Z" fill="#626266"/>
</symbol>
<symbol id="google" viewBox="0 0 24 24" fill="none" xmlns="http://www.w3.org/2000/svg">
<path d="M12.1999 22.75C8.15994 22.75 4.51994 20.52 2.65994 16.93C2.62994 16.9 2.60994 16.86 2.58994 16.82C1.82994 15.3 1.43994 13.68 1.43994 12C1.43994 10.32 1.82994 8.69999 2.58994 7.17999C4.42994 3.51999 8.10994 1.25 12.1899 1.25C14.9299 1.25 17.4199 2.21999 19.3899 4.04999C19.5399 4.18999 19.6299 4.38 19.6299 4.59C19.6299 4.8 19.5499 4.99001 19.3999 5.14001L16.5799 7.89999C16.2899 8.17999 15.8399 8.19 15.5399 7.91C14.9099 7.32 13.8199 6.62 12.1899 6.62C10.1299 6.62 8.23994 7.86001 7.38994 9.79001C7.31994 9.95001 7.25994 10.1 7.19994 10.27C7.00994 10.85 6.91994 11.44 6.91994 12.01C6.91994 12.58 7.01994 13.15 7.19994 13.72C7.19994 13.73 7.20994 13.74 7.20994 13.76C7.92994 15.94 9.92994 17.4 12.1899 17.4C13.3799 17.4 14.3999 17.11 15.2299 16.53C15.9899 16 16.4699 15.29 16.7299 14.65H12.1999C11.7899 14.65 11.4499 14.31 11.4499 13.9V10.19C11.4499 9.78 11.7899 9.44 12.1999 9.44H21.5899C21.9399 9.44 22.2399 9.67999 22.3199 10.02C22.4799 10.72 22.5499 11.38 22.5499 12.23C22.5499 15.41 21.4099 18.22 19.3299 20.14C17.4799 21.84 15.0099 22.75 12.1999 22.75ZM3.87994 16.05C3.90994 16.09 3.93994 16.14 3.95994 16.19C5.52994 19.3 8.68994 21.25 12.1999 21.25C14.6299 21.25 16.7399 20.48 18.3099 19.03C20.0799 17.4 21.0499 14.98 21.0499 12.22C21.0499 11.72 21.0299 11.32 20.9699 10.93H12.9499V13.14H17.7099C17.9199 13.14 18.1299 13.23 18.2699 13.39C18.4099 13.55 18.4799 13.77 18.4499 13.98C18.3199 15.1 17.6199 16.68 16.0899 17.75C15.0099 18.5 13.6999 18.89 12.1899 18.89C9.29994 18.89 6.73994 17.03 5.79994 14.25C5.79994 14.24 5.78994 14.23 5.78994 14.22C5.53994 13.49 5.41994 12.75 5.41994 12.01C5.41994 11.28 5.53994 10.54 5.77994 9.79999C5.84994 9.57999 5.92994 9.37999 6.01994 9.17999C7.11994 6.70999 9.53994 5.12 12.1899 5.12C13.8999 5.12 15.1599 5.72001 16.0199 6.35001L17.7699 4.64001C16.1899 3.40001 14.2699 2.75 12.1899 2.75C8.67994 2.75 5.50994 4.70001 3.92994 7.85001C3.27994 9.16001 2.93994 10.56 2.93994 12C2.94994 13.41 3.25994 14.77 3.87994 16.05Z" fill="#272729"/>
</symbol>
<symbol id="heart-outline" viewBox="0 0 24 24" fill="none" xmlns="http://www.w3.org/2000/svg">
<path d="M12 21.65C11.69 21.65 11.39 21.61 11.14 21.52C7.32 20.21 1.25 15.56 1.25 8.68998C1.25 5.18998 4.08 2.34998 7.56 2.34998C9.25 2.34998 10.83 3.00998 12 4.18998C13.17 3.00998 14.75 2.34998 16.44 2.34998C19.92 2.34998 22.75 5.19998 22.75 8.68998C22.75 15.57 16.68 20.21 12.86 21.52C12.61 21.61 12.31 21.65 12 21.65ZM7.56 3.84998C4.91 3.84998 2.75 6.01998 2.75 8.68998C2.75 15.52 9.32 19.32 11.63 20.11C11.81 20.17 12.2 20.17 12.38 20.11C14.68 19.32 21.26 15.53 21.26 8.68998C21.26 6.01998 19.1 3.84998 16.45 3.84998C14.93 3.84998 13.52 4.55998 12.61 5.78998C12.33 6.16998 11.69 6.16998 11.41 5.78998C10.48 4.54998 9.08 3.84998 7.56 3.84998Z" fill="#626266"/>
</symbol>
<symbol id="import" viewBox="0 0 24 24" fill="none" xmlns="http://www.w3.org/2000/svg">
<path d="M15.26 22.25H8.73998C3.82998 22.25 1.72998 20.15 1.72998 15.24V15.11C1.72998 10.67 3.47998 8.53003 7.39998 8.16003C7.79998 8.13003 8.17998 8.43003 8.21998 8.84003C8.25998 9.25003 7.95998 9.62003 7.53998 9.66003C4.39998 9.95003 3.22998 11.43 3.22998 15.12V15.25C3.22998 19.32 4.66998 20.76 8.73998 20.76H15.26C19.33 20.76 20.77 19.32 20.77 15.25V15.12C20.77 11.41 19.58 9.93003 16.38 9.66003C15.97 9.62003 15.66 9.26003 15.7 8.85003C15.74 8.44003 16.09 8.13003 16.51 8.17003C20.49 8.51003 22.27 10.66 22.27 15.13V15.26C22.27 20.15 20.17 22.25 15.26 22.25Z" fill="#292D32"/>
<path d="M12 15.63C11.59 15.63 11.25 15.29 11.25 14.88V2C11.25 1.59 11.59 1.25 12 1.25C12.41 1.25 12.75 1.59 12.75 2V14.88C12.75 15.3 12.41 15.63 12 15.63Z" fill="#292D32"/>
<path d="M12.0001 16.75C11.8101 16.75 11.6201 16.68 11.4701 16.53L8.12009 13.18C7.83009 12.89 7.83009 12.41 8.12009 12.12C8.41009 11.83 8.89009 11.83 9.18009 12.12L12.0001 14.94L14.8201 12.12C15.1101 11.83 15.5901 11.83 15.8801 12.12C16.1701 12.41 16.1701 12.89 15.8801 13.18L12.5301 16.53C12.3801 16.68 12.1901 16.75 12.0001 16.75Z" fill="#292D32"/>
</symbol>
<symbol id="line-chart" viewBox="0 0 24 24" fill="none" xmlns="http://www.w3.org/2000/svg">
<path d="M22 22.75H5C2.93 22.75 1.25 21.07 1.25 19V2C1.25 1.59 1.59 1.25 2 1.25C2.41 1.25 2.75 1.59 2.75 2V19C2.75 20.24 3.76 21.25 5 21.25H22C22.41 21.25 22.75 21.59 22.75 22C22.75 22.41 22.41 22.75 22 22.75Z" fill="#292D32"/>
<path d="M4.99982 17.7501C4.82982 17.7501 4.64982 17.6901 4.50982 17.5701C4.19982 17.3001 4.15982 16.8301 4.42982 16.5101L9.01982 11.1501C9.51982 10.5701 10.2398 10.2201 10.9998 10.1901C11.7598 10.1701 12.5098 10.4501 13.0498 10.9901L13.9998 11.9401C14.2498 12.1901 14.5798 12.3101 14.9298 12.3101C15.2798 12.3001 15.5998 12.1401 15.8298 11.8701L20.4198 6.51008C20.6898 6.20008 21.1598 6.16006 21.4798 6.43006C21.7898 6.70006 21.8298 7.17006 21.5598 7.49006L16.9698 12.8501C16.4698 13.4301 15.7498 13.7801 14.9898 13.8101C14.2298 13.8301 13.4798 13.5501 12.9398 13.0101L11.9998 12.0601C11.7498 11.8101 11.4198 11.6801 11.0698 11.6901C10.7198 11.7001 10.3998 11.8601 10.1698 12.1301L5.57982 17.4901C5.41982 17.6601 5.20982 17.7501 4.99982 17.7501Z" fill="#292D32"/>
</symbol>
<symbol id="link" viewBox="0 0 24 24" fill="none" xmlns="http://www.w3.org/2000/svg">
<path d="M7.75 18.5C4.17 18.5 1.25 15.58 1.25 12C1.25 8.42 4.17 5.5 7.75 5.5C8.16 5.5 8.5 5.84 8.5 6.25C8.5 6.66 8.16 7 7.75 7C4.99 7 2.75 9.24 2.75 12C2.75 14.76 4.99 17 7.75 17C10.51 17 12.75 14.76 12.75 12C12.75 11.59 13.09 11.25 13.5 11.25C13.91 11.25 14.25 11.59 14.25 12C14.25 15.58 11.33 18.5 7.75 18.5Z" fill="#626266"/>
<path d="M16 18.75C15.59 18.75 15.25 18.41 15.25 18C15.25 17.59 15.59 17.25 16 17.25C18.89 17.25 21.25 14.89 21.25 12C21.25 9.11 18.89 6.75 16 6.75C13.11 6.75 10.75 9.11 10.75 12C10.75 12.41 10.41 12.75 10 12.75C9.59 12.75 9.25 12.41 9.25 12C9.25 8.28 12.28 5.25 16 5.25C19.72 5.25 22.75 8.28 22.75 12C22.75 15.72 19.72 18.75 16 18.75Z" fill="#626266"/>
</symbol>
<symbol id="menu" viewBox="0 0 24 24" fill="none" xmlns="http://www.w3.org/2000/svg">
<path d="M21 7.75H3C2.59 7.75 2.25 7.41 2.25 7C2.25 6.59 2.59 6.25 3 6.25H21C21.41 6.25 21.75 6.59 21.75 7C21.75 7.41 21.41 7.75 21 7.75Z" fill="#292D32"/>
<path d="M21 12.75H3C2.59 12.75 2.25 12.41 2.25 12C2.25 11.59 2.59 11.25 3 11.25H21C21.41 11.25 21.75 11.59 21.75 12C21.75 12.41 21.41 12.75 21 12.75Z" fill="#292D32"/>
<path d="M21 17.75H3C2.59 17.75 2.25 17.41 2.25 17C2.25 16.59 2.59 16.25 3 16.25H21C21.41 16.25 21.75 16.59 21.75 17C21.75 17.41 21.41 17.75 21 17.75Z" fill="#292D32"/>
</symbol>
<symbol id="message" viewBox="0 0 24 24" fill="none" xmlns="http://www.w3.org/2000/svg">
<path d="M12 22.81C11.31 22.81 10.66 22.46 10.2 21.85L8.7 19.85C8.67 19.81 8.55 19.76 8.5 19.75H8C3.83 19.75 1.25 18.62 1.25 13V8C1.25 3.58 3.58 1.25 8 1.25H16C20.42 1.25 22.75 3.58 22.75 8V13C22.75 17.42 20.42 19.75 16 19.75H15.5C15.42 19.75 15.35 19.79 15.3 19.85L13.8 21.85C13.34 22.46 12.69 22.81 12 22.81ZM8 2.75C4.42 2.75 2.75 4.42 2.75 8V13C2.75 17.52 4.3 18.25 8 18.25H8.5C9.01 18.25 9.59 18.54 9.9 18.95L11.4 20.95C11.75 21.41 12.25 21.41 12.6 20.95L14.1 18.95C14.43 18.51 14.95 18.25 15.5 18.25H16C19.58 18.25 21.25 16.58 21.25 13V8C21.25 4.42 19.58 2.75 16 2.75H8Z" fill="#626266"/>
<path d="M12 12C11.44 12 11 11.55 11 11C11 10.45 11.45 10 12 10C12.55 10 13 10.45 13 11C13 11.55 12.56 12 12 12Z" fill="#626266"/>
<path d="M16 12C15.44 12 15 11.55 15 11C15 10.45 15.45 10 16 10C16.55 10 17 10.45 17 11C17 11.55 16.56 12 16 12Z" fill="#626266"/>
<path d="M8 12C7.44 12 7 11.55 7 11C7 10.45 7.45 10 8 10C8.55 10 9 10.45 9 11C9 11.55 8.56 12 8 12Z" fill="#626266"/>
</symbol>
<symbol id="more-square" viewBox="0 0 24 24" fill="none" xmlns="http://www.w3.org/2000/svg">
<path d="M15 22.75H9C3.57 22.75 1.25 20.43 1.25 15V9C1.25 3.57 3.57 1.25 9 1.25H15C20.43 1.25 22.75 3.57 22.75 9V15C22.75 20.43 20.43 22.75 15 22.75ZM9 2.75C4.39 2.75 2.75 4.39 2.75 9V15C2.75 19.61 4.39 21.25 9 21.25H15C19.61 21.25 21.25 19.61 21.25 15V9C21.25 4.39 19.61 2.75 15 2.75H9Z" fill="#626266"/>
<path d="M12 13C11.44 13 11 12.55 11 12C11 11.45 11.45 11 12 11C12.55 11 13 11.45 13 12C13 12.55 12.56 13 12 13Z" fill="#626266"/>
<path d="M16 13C15.44 13 15 12.55 15 12C15 11.45 15.45 11 16 11C16.55 11 17 11.45 17 12C17 12.55 16.56 13 16 13Z" fill="#626266"/>
<path d="M8 13C7.44 13 7 12.55 7 12C7 11.45 7.45 11 8 11C8.55 11 9 11.45 9 12C9 12.55 8.56 13 8 13Z" fill="#626266"/>
</symbol>
<symbol id="more" viewBox="0 0 24 24" fill="none" xmlns="http://www.w3.org/2000/svg">
<path d="M5.5 13C4.66 13 4 12.325 4 11.5C4 10.675 4.675 10 5.5 10C6.325 10 7 10.675 7 11.5C7 12.325 6.34 13 5.5 13Z" fill="#626266"/>
<path d="M12.5 13C11.66 13 11 12.325 11 11.5C11 10.675 11.675 10 12.5 10C13.325 10 14 10.675 14 11.5C14 12.325 13.34 13 12.5 13Z" fill="#626266"/>
<path d="M19.5 13C18.66 13 18 12.325 18 11.5C18 10.675 18.675 10 19.5 10C20.325 10 21 10.675 21 11.5C21 12.325 20.34 13 19.5 13Z" fill="#626266"/>
</symbol>
<symbol id="note-add" viewBox="0 0 24 24" fill="none" xmlns="http://www.w3.org/2000/svg">
<path d="M9.56006 18.75C9.15006 18.75 8.81006 18.41 8.81006 18V13C8.81006 12.59 9.15006 12.25 9.56006 12.25C9.97006 12.25 10.3101 12.59 10.3101 13V18C10.3101 18.41 9.97006 18.75 9.56006 18.75Z" fill="#292D32"/>
<path d="M12 16.25H7C6.59 16.25 6.25 15.91 6.25 15.5C6.25 15.09 6.59 14.75 7 14.75H12C12.41 14.75 12.75 15.09 12.75 15.5C12.75 15.91 12.41 16.25 12 16.25Z" fill="#292D32"/>
<path d="M8 5.75C7.59 5.75 7.25 5.41 7.25 5V2C7.25 1.59 7.59 1.25 8 1.25C8.41 1.25 8.75 1.59 8.75 2V5C8.75 5.41 8.41 5.75 8 5.75Z" fill="#292D32"/>
<path d="M16 5.75C15.59 5.75 15.25 5.41 15.25 5V2C15.25 1.59 15.59 1.25 16 1.25C16.41 1.25 16.75 1.59 16.75 2V5C16.75 5.41 16.41 5.75 16 5.75Z" fill="#292D32"/>
<path d="M8.85002 22.8101C6.38002 22.8101 4.75002 22.2701 3.73002 21.1101C2.55002 19.7801 2.36001 17.7901 2.32001 16.0201L2.19002 9.85005C2.09002 5.12005 3.66002 3.15005 7.76002 2.84005L15.8 2.68005C15.82 2.68005 15.83 2.68005 15.84 2.68005C19.95 2.82005 21.59 4.72005 21.69 9.46005L21.81 15.6301C21.85 17.4001 21.73 19.4001 20.61 20.7701C19.59 22.0201 17.87 22.6301 15.2 22.6901L9.20001 22.8101C9.08001 22.8101 8.96002 22.8101 8.85002 22.8101ZM15.8 4.17005L7.83001 4.33005C5.03001 4.55005 3.60002 5.45005 3.69002 9.82005L3.82001 15.9901C3.86001 18.1101 4.17001 19.3501 4.85001 20.1201C5.61001 20.9801 6.98001 21.3601 9.18002 21.3101L15.18 21.1901C17.37 21.1501 18.73 20.7101 19.46 19.8201C20.11 19.0301 20.37 17.7801 20.32 15.6601L20.2 9.49005C20.1 5.13005 18.64 4.27005 15.8 4.17005Z" fill="#292D32"/>
</symbol>
<symbol id="notification" viewBox="0 0 24 24" fill="none" xmlns="http://www.w3.org/2000/svg">
<path fill-rule="evenodd" clip-rule="evenodd" d="M10.3242 20.106C10.8422 20.683 11.5072 21 12.1972 21H12.1982C12.8912 21 13.5592 20.683 14.0782 20.105C14.3562 19.798 14.8302 19.773 15.1372 20.05C15.4452 20.327 15.4702 20.802 15.1932 21.109C14.3852 22.006 13.3222 22.5 12.1982 22.5H12.1962C11.0752 22.499 10.0142 22.005 9.20923 21.108C8.93223 20.801 8.95723 20.326 9.26523 20.05C9.57323 19.772 10.0472 19.797 10.3242 20.106ZM12.247 1C16.692 1 19.678 4.462 19.678 7.695C19.678 9.358 20.101 10.063 20.55 10.811C20.994 11.549 21.497 12.387 21.497 13.971C21.148 18.018 16.923 18.348 12.247 18.348C7.57103 18.348 3.34503 18.018 3.00001 14.035C2.99703 12.387 3.50003 11.549 3.94403 10.811L4.10077 10.5472C4.4867 9.88386 4.81603 9.16235 4.81603 7.695C4.81603 4.462 7.80203 1 12.247 1ZM12.247 2.5C8.75203 2.5 6.31603 5.238 6.31603 7.695C6.31603 9.774 5.73903 10.735 5.22903 11.583C4.82003 12.264 4.49703 12.802 4.49703 13.971C4.66403 15.857 5.90903 16.848 12.247 16.848C18.55 16.848 19.834 15.813 20 13.906C19.997 12.802 19.674 12.264 19.265 11.583C18.755 10.735 18.178 9.774 18.178 7.695C18.178 5.238 15.742 2.5 12.247 2.5Z" fill="black"/>
</symbol>
<symbol id="percentage" viewBox="0 0 24 24" fill="none" xmlns="http://www.w3.org/2000/svg">
<path d="M15 22.75H9C3.57 22.75 1.25 20.43 1.25 15V9C1.25 3.57 3.57 1.25 9 1.25H15C20.43 1.25 22.75 3.57 22.75 9V15C22.75 20.43 20.43 22.75 15 22.75ZM9 2.75C4.39 2.75 2.75 4.39 2.75 9V15C2.75 19.61 4.39 21.25 9 21.25H15C19.61 21.25 21.25 19.61 21.25 15V9C21.25 4.39 19.61 2.75 15 2.75H9Z" fill="#292D32"/>
<path d="M8.56976 16.02C8.37976 16.02 8.18977 15.95 8.03977 15.8C7.74977 15.51 7.74977 15.03 8.03977 14.74L14.5898 8.19003C14.8798 7.90003 15.3598 7.90003 15.6498 8.19003C15.9398 8.48003 15.9398 8.96003 15.6498 9.25003L9.09976 15.8C8.94976 15.95 8.75976 16.02 8.56976 16.02Z" fill="#292D32"/>
<path d="M8.98001 11.11C7.89001 11.11 7 10.22 7 9.13004C7 8.04004 7.89001 7.15002 8.98001 7.15002C10.07 7.15002 10.96 8.04004 10.96 9.13004C10.96 10.22 10.07 11.11 8.98001 11.11ZM8.98001 8.66003C8.72001 8.66003 8.5 8.87005 8.5 9.14005C8.5 9.41005 8.71001 9.62003 8.98001 9.62003C9.25001 9.62003 9.45999 9.41005 9.45999 9.14005C9.45999 8.87005 9.24001 8.66003 8.98001 8.66003Z" fill="#292D32"/>
<path d="M15.52 16.84C14.43 16.84 13.54 15.95 13.54 14.86C13.54 13.77 14.43 12.88 15.52 12.88C16.61 12.88 17.5 13.77 17.5 14.86C17.5 15.95 16.61 16.84 15.52 16.84ZM15.52 14.39C15.26 14.39 15.04 14.6 15.04 14.87C15.04 15.14 15.25 15.35 15.52 15.35C15.79 15.35 16 15.14 16 14.87C16 14.6 15.79 14.39 15.52 14.39Z" fill="#292D32"/>
</symbol>
<symbol id="pie" viewBox="0 0 24 24" fill="none" xmlns="http://www.w3.org/2000/svg">
<path d="M18.32 12.75H15C12.51 12.75 11.25 11.34 11.25 8.54996V5.67996C11.25 4.65996 11.37 3.19996 12.43 2.39996C13.32 1.73996 14.6 1.68996 16.49 2.23996C18.97 2.95996 21.04 5.02996 21.76 7.50996C22.31 9.38996 22.26 10.68 21.6 11.56C20.8 12.63 19.34 12.75 18.32 12.75ZM14.28 3.35996C13.87 3.35996 13.55 3.43996 13.34 3.59996C12.95 3.88996 12.76 4.56996 12.76 5.67996V8.55996C12.76 10.8 13.62 11.26 15.01 11.26H18.33C19.43 11.26 20.11 11.07 20.41 10.68C20.76 10.22 20.73 9.29996 20.34 7.94996C19.76 5.97996 18.06 4.26996 16.09 3.69996C15.35 3.46996 14.75 3.35996 14.28 3.35996Z" fill="#292D32"/>
<path d="M11.0699 22.75C10.5399 22.75 9.99988 22.71 9.45988 22.62C5.36988 21.96 2.03988 18.64 1.37988 14.55C0.529883 9.28995 3.91988 4.32995 9.10988 3.26995C9.51988 3.18995 9.90988 3.44995 9.99988 3.84995C10.0799 4.25995 9.81988 4.64995 9.41988 4.73995C5.02988 5.63995 2.14988 9.83995 2.87988 14.31C3.43988 17.77 6.24988 20.58 9.70988 21.14C14.1999 21.86 18.3899 18.97 19.2799 14.56C19.3599 14.15 19.7599 13.89 20.1599 13.97C20.5699 14.05 20.8299 14.45 20.7499 14.85C19.7999 19.52 15.7199 22.75 11.0699 22.75Z" fill="#292D32"/>
</symbol>
<symbol id="pin-outline" viewBox="0 0 32 32" fill="none" xmlns="http://www.w3.org/2000/svg">
<path fill-rule="evenodd" clip-rule="evenodd" d="M26.5843 10.8972C28.6792 10.4317 30.667 12.0232 30.667 14.166L30.667 15.9999L28.8375 15.9999L28.8375 14.166C28.8375 13.192 27.9339 12.4686 26.9817 12.6802L22.459 13.685C21.6754 13.8591 20.8603 13.5795 20.3492 12.9613L17.9994 10.119C17.8001 9.87788 17.4789 9.77397 17.1758 9.85252C16.8207 9.94457 16.5728 10.2646 16.5728 10.6309L16.5728 13.976C16.5774 14.0132 16.5798 14.0507 16.5798 14.0886L16.5798 17.7418C16.5798 17.7797 16.5774 17.8173 16.5728 17.8544L16.5728 21.3693C16.5728 21.7356 16.8207 22.0556 17.1758 22.1476C17.4789 22.2262 17.8001 22.1223 17.9994 21.8812L20.3492 19.0388C20.8603 18.4207 21.6754 18.1411 22.459 18.3152L26.9817 19.32C27.9339 19.5315 28.8375 18.8081 28.8375 17.8341L28.8375 16.0002L30.667 16.0002L30.667 17.8341C30.667 19.9769 28.6792 21.5684 26.5843 21.103L22.0616 20.0982C21.9497 20.0733 21.8332 20.1132 21.7602 20.2015L19.4104 23.0439C18.7583 23.8326 17.7076 24.1726 16.7161 23.9156C15.5544 23.6145 14.7432 22.5676 14.7432 21.3693L14.7432 18.5381L2.12478 16.8201C1.67153 16.7584 1.33361 16.3719 1.33361 15.9152C1.33361 15.4585 1.67153 15.072 2.12478 15.0103L14.7432 13.2923L14.7432 10.6309C14.7432 9.43255 15.5544 8.38564 16.7161 8.08451C17.7076 7.82753 18.7583 8.16749 19.4104 8.95622L21.7602 11.7986C21.8332 11.8869 21.9497 11.9268 22.0616 11.902L26.5843 10.8972ZM14.7432 15.1358L9.01876 15.9152L14.7432 16.6946L14.7432 16.0002L14.7502 16.0002L14.7502 15.9999L14.7432 15.9999L14.7432 15.1358Z" fill="#3D3D3D"/>
</symbol>
<symbol id="poll" viewBox="0 0 24 24" fill="none" xmlns="http://www.w3.org/2000/svg">
<path fill-rule="evenodd" clip-rule="evenodd" d="M8.62012 2.25C9.58433 2.25 10.3701 3.03579 10.3701 4V5.59998C10.3701 6.56419 9.58433 7.34998 8.62012 7.34998L3.00012 7.34998C2.03591 7.34998 1.25012 6.56419 1.25012 5.59998L1.25012 4C1.25012 3.03579 2.03591 2.25 3.00012 2.25L8.62012 2.25ZM8.87012 4C8.87012 3.86421 8.75591 3.75 8.62012 3.75L3.00012 3.75C2.86434 3.75 2.75012 3.86421 2.75012 4L2.75012 5.59998C2.75012 5.73576 2.86434 5.84998 3.00012 5.84998L8.62012 5.84998C8.75591 5.84998 8.87012 5.73576 8.87012 5.59998V4Z" fill="#626266"/>
<path fill-rule="evenodd" clip-rule="evenodd" d="M13.8101 9.44995C14.7743 9.44995 15.5601 10.2357 15.5601 11.2V12.7999C15.5601 13.7641 14.7743 14.5499 13.8101 14.5499L3.00006 14.5499C2.03585 14.5499 1.25006 13.7641 1.25006 12.7999L1.25006 11.2C1.25006 10.2357 2.03585 9.44995 3.00006 9.44995L13.8101 9.44995ZM14.0601 11.2C14.0601 11.0642 13.9458 10.95 13.8101 10.95L3.00006 10.95C2.86427 10.95 2.75006 11.0642 2.75006 11.2V12.7999C2.75006 12.9357 2.86427 13.0499 3.00006 13.0499L13.8101 13.0499C13.9458 13.0499 14.0601 12.9357 14.0601 12.7999V11.2Z" fill="#626266"/>
<path fill-rule="evenodd" clip-rule="evenodd" d="M18 16.6499C18.9642 16.6499 19.75 17.4357 19.75 18.3999V19.9999C19.75 20.9641 18.9642 21.7499 18 21.7499H3C2.03579 21.7499 1.25 20.9641 1.25 19.9999L1.25 18.3999C1.25 17.4357 2.03579 16.6499 3 16.6499L18 16.6499ZM18.25 18.3999C18.25 18.2641 18.1358 18.1499 18 18.1499L3 18.1499C2.86421 18.1499 2.75 18.2641 2.75 18.3999L2.75 19.9999C2.75 20.1357 2.86421 20.2499 3 20.2499H18C18.1358 20.2499 18.25 20.1357 18.25 19.9999V18.3999Z" fill="#626266"/>
<path fill-rule="evenodd" clip-rule="evenodd" d="M22.7375 9.17997C23.0523 9.44915 23.0893 9.92258 22.8201 10.2374L19.4001 14.2374C19.2645 14.396 19.069 14.4909 18.8605 14.4994C18.652 14.5079 18.4495 14.4291 18.3014 14.282L16.7214 12.712C16.4276 12.4201 16.4261 11.9452 16.7181 11.6514C17.01 11.3576 17.4849 11.356 17.7787 11.648L18.7853 12.6482L21.68 9.26263C21.9492 8.9478 22.4227 8.91079 22.7375 9.17997Z" fill="#626266"/>
</symbol>
<symbol id="radar" viewBox="0 0 24 24" fill="none" xmlns="http://www.w3.org/2000/svg">
<path d="M12 14.75C10.48 14.75 9.25 13.52 9.25 12C9.25 10.48 10.48 9.25 12 9.25C13.52 9.25 14.75 10.48 14.75 12C14.75 13.52 13.52 14.75 12 14.75ZM12 10.75C11.31 10.75 10.75 11.31 10.75 12C10.75 12.69 11.31 13.25 12 13.25C12.69 13.25 13.25 12.69 13.25 12C13.25 11.31 12.69 10.75 12 10.75Z" fill="#292D32"/>
<path d="M20.0003 18.75C19.8403 18.75 19.6903 18.7 19.5503 18.6C19.2203 18.35 19.1503 17.88 19.4003 17.55C20.6103 15.94 21.2503 14.02 21.2503 12C21.2503 9.98004 20.6103 8.06005 19.4003 6.45005C19.1503 6.12005 19.2203 5.65003 19.5503 5.40003C19.8803 5.15003 20.3503 5.22002 20.6003 5.55002C22.0103 7.42002 22.7503 9.65004 22.7503 12C22.7503 14.35 22.0103 16.58 20.6003 18.45C20.4503 18.65 20.2303 18.75 20.0003 18.75Z" fill="#292D32"/>
<path d="M4 18.75C3.77 18.75 3.54999 18.65 3.39999 18.45C1.98999 16.58 1.25 14.35 1.25 12C1.25 9.65004 1.98999 7.42002 3.39999 5.55002C3.64999 5.22002 4.12001 5.15003 4.45001 5.40003C4.78001 5.65003 4.85001 6.12005 4.60001 6.45005C3.39001 8.06005 2.75 9.98004 2.75 12C2.75 14.02 3.39001 15.94 4.60001 17.55C4.85001 17.88 4.78001 18.35 4.45001 18.6C4.32001 18.7 4.16 18.75 4 18.75Z" fill="#292D32"/>
<path d="M16.8001 16.3499C16.6401 16.3499 16.4901 16.2999 16.3501 16.1999C16.0201 15.9499 15.9501 15.4799 16.2001 15.1499C16.8901 14.2399 17.2501 13.1499 17.2501 11.9999C17.2501 10.8499 16.8901 9.75994 16.2001 8.84994C15.9501 8.51994 16.0201 8.04992 16.3501 7.79992C16.6801 7.54992 17.1501 7.61995 17.4001 7.94995C18.2801 9.12995 18.7501 10.5299 18.7501 11.9999C18.7501 13.4699 18.2801 14.8799 17.4001 16.0499C17.2501 16.2499 17.0301 16.3499 16.8001 16.3499Z" fill="#292D32"/>
<path d="M7.20001 16.3499C6.97001 16.3499 6.75001 16.2499 6.60001 16.0499C5.72001 14.8699 5.25 13.4699 5.25 11.9999C5.25 10.5299 5.72001 9.11995 6.60001 7.94995C6.85001 7.61995 7.31999 7.54992 7.64999 7.79992C7.97999 8.04992 8.04999 8.51994 7.79999 8.84994C7.10999 9.75994 6.75 10.8499 6.75 11.9999C6.75 13.1499 7.10999 14.2399 7.79999 15.1499C8.04999 15.4799 7.97999 15.9499 7.64999 16.1999C7.51999 16.2999 7.36001 16.3499 7.20001 16.3499Z" fill="#292D32"/>
</symbol>
<symbol id="repeat" viewBox="0 0 24 24" fill="none" xmlns="http://www.w3.org/2000/svg">
<path d="M20.4201 12.22C20.0101 12.22 19.6701 11.88 19.6701 11.47V8.15002C19.6701 6.91002 18.6601 5.90002 17.4201 5.90002H3.58008C3.17008 5.90002 2.83008 5.56002 2.83008 5.15002C2.83008 4.74002 3.17008 4.40002 3.58008 4.40002H17.4201C19.4901 4.40002 21.1701 6.08002 21.1701 8.15002V11.47C21.1701 11.89 20.8301 12.22 20.4201 12.22Z" fill="#626266"/>
<path d="M6.74008 9.06998C6.55008 9.06998 6.36008 8.99995 6.21008 8.84995L3.05008 5.68997C2.91008 5.54997 2.83008 5.35994 2.83008 5.15994C2.83008 4.95994 2.91008 4.76998 3.05008 4.62998L6.21008 1.46994C6.50008 1.17994 6.98008 1.17994 7.27008 1.46994C7.56008 1.75994 7.56008 2.24 7.27008 2.53L4.64011 5.15994L7.27008 7.78995C7.56008 8.07995 7.56008 8.55995 7.27008 8.84995C7.12008 8.98995 6.93008 9.06998 6.74008 9.06998Z" fill="#626266"/>
<path d="M20.4201 19.59H6.58008C4.51008 19.59 2.83008 17.91 2.83008 15.84V12.52C2.83008 12.11 3.17008 11.77 3.58008 11.77C3.99008 11.77 4.33008 12.11 4.33008 12.52V15.84C4.33008 17.08 5.34008 18.09 6.58008 18.09H20.4201C20.8301 18.09 21.1701 18.43 21.1701 18.84C21.1701 19.25 20.8301 19.59 20.4201 19.59Z" fill="#626266"/>
<path d="M17.2602 22.75C17.0702 22.75 16.8802 22.68 16.7302 22.53C16.4402 22.24 16.4402 21.7599 16.7302 21.4699L19.3602 18.84L16.7302 16.21C16.4402 15.92 16.4402 15.44 16.7302 15.15C17.0202 14.86 17.5002 14.86 17.7902 15.15L20.9502 18.31C21.0902 18.45 21.1702 18.64 21.1702 18.84C21.1702 19.04 21.0902 19.23 20.9502 19.37L17.7902 22.53C17.6502 22.68 17.4602 22.75 17.2602 22.75Z" fill="#626266"/>
</symbol>
<symbol id="search" viewBox="0 0 24 24" fill="none" xmlns="http://www.w3.org/2000/svg">
<path d="M11.5 21.75C5.85 21.75 1.25 17.15 1.25 11.5C1.25 5.85 5.85 1.25 11.5 1.25C17.15 1.25 21.75 5.85 21.75 11.5C21.75 17.15 17.15 21.75 11.5 21.75ZM11.5 2.75C6.67 2.75 2.75 6.68 2.75 11.5C2.75 16.32 6.67 20.25 11.5 20.25C16.33 20.25 20.25 16.32 20.25 11.5C20.25 6.68 16.33 2.75 11.5 2.75Z" fill="#666666"/>
<path d="M21.9999 22.7499C21.8099 22.7499 21.6199 22.6799 21.4699 22.5299L19.4699 20.5299C19.1799 20.2399 19.1799 19.7599 19.4699 19.4699C19.7599 19.1799 20.2399 19.1799 20.5299 19.4699L22.5299 21.4699C22.8199 21.7599 22.8199 22.2399 22.5299 22.5299C22.3799 22.6799 22.1899 22.7499 21.9999 22.7499Z" fill="#666666"/>
</symbol>
<symbol id="search-status" viewBox="0 0 24 24" fill="none" xmlns="http://www.w3.org/2000/svg">
<path d="M11 20.75C5.62 20.75 1.25 16.38 1.25 11C1.25 5.62 5.62 1.25 11 1.25C11.41 1.25 11.75 1.59 11.75 2C11.75 2.41 11.41 2.75 11 2.75C6.45 2.75 2.75 6.45 2.75 11C2.75 15.55 6.45 19.25 11 19.25C15.55 19.25 19.25 15.55 19.25 11C19.25 10.59 19.59 10.25 20 10.25C20.41 10.25 20.75 10.59 20.75 11C20.75 16.38 16.38 20.75 11 20.75Z" fill="#292D32"/>
<path d="M20 5.75H14C13.59 5.75 13.25 5.41 13.25 5C13.25 4.59 13.59 4.25 14 4.25H20C20.41 4.25 20.75 4.59 20.75 5C20.75 5.41 20.41 5.75 20 5.75Z" fill="#292D32"/>
<path d="M17 8.75H14C13.59 8.75 13.25 8.41 13.25 8C13.25 7.59 13.59 7.25 14 7.25H17C17.41 7.25 17.75 7.59 17.75 8C17.75 8.41 17.41 8.75 17 8.75Z" fill="#292D32"/>
<path d="M20.1601 22.79C20.0801 22.79 20.0001 22.78 19.9301 22.77C19.4601 22.71 18.6101 22.39 18.1301 20.96C17.8801 20.21 17.9701 19.46 18.3801 18.89C18.7901 18.32 19.4801 18 20.2701 18C21.2901 18 22.0901 18.39 22.4501 19.08C22.8101 19.77 22.7101 20.65 22.1401 21.5C21.4301 22.57 20.6601 22.79 20.1601 22.79ZM19.5601 20.49C19.7301 21.01 19.9701 21.27 20.1301 21.29C20.2901 21.31 20.5901 21.12 20.9001 20.67C21.1901 20.24 21.2101 19.93 21.1401 19.79C21.0701 19.65 20.7901 19.5 20.2701 19.5C19.9601 19.5 19.7301 19.6 19.6001 19.77C19.4801 19.94 19.4601 20.2 19.5601 20.49Z" fill="#292D32"/>
</symbol>
<symbol id="send" viewBox="0 0 24 24" fill="none" xmlns="http://www.w3.org/2000/svg">
<path d="M14.2199 21.6299C13.0399 21.6299 11.3699 20.7999 10.0499 16.8299L9.32988 14.6699L7.16988 13.9499C3.20988 12.6299 2.37988 10.9599 2.37988 9.77995C2.37988 8.60995 3.20988 6.92995 7.16988 5.59995L15.6599 2.76995C17.7799 2.05995 19.5499 2.26995 20.6399 3.34995C21.7299 4.42995 21.9399 6.20995 21.2299 8.32995L18.3999 16.8199C17.0699 20.7999 15.3999 21.6299 14.2199 21.6299ZM7.63988 7.02995C4.85988 7.95995 3.86988 9.05995 3.86988 9.77995C3.86988 10.4999 4.85988 11.5999 7.63988 12.5199L10.1599 13.3599C10.3799 13.4299 10.5599 13.6099 10.6299 13.8299L11.4699 16.3499C12.3899 19.1299 13.4999 20.1199 14.2199 20.1199C14.9399 20.1199 16.0399 19.1299 16.9699 16.3499L19.7999 7.85995C20.3099 6.31995 20.2199 5.05995 19.5699 4.40995C18.9199 3.75995 17.6599 3.67995 16.1299 4.18995L7.63988 7.02995Z" fill="#292D32"/>
<path d="M10.1098 14.4C9.9198 14.4 9.7298 14.33 9.5798 14.18C9.2898 13.89 9.2898 13.41 9.5798 13.12L13.1598 9.53C13.4498 9.24 13.9298 9.24 14.2198 9.53C14.5098 9.82 14.5098 10.3 14.2198 10.59L10.6398 14.18C10.4998 14.33 10.2998 14.4 10.1098 14.4Z" fill="#292D32"/>
</symbol>
<symbol id="setting" viewBox="0 0 24 24" fill="none" xmlns="http://www.w3.org/2000/svg">
<path d="M12 15.75C9.93 15.75 8.25 14.07 8.25 12C8.25 9.93 9.93 8.25 12 8.25C14.07 8.25 15.75 9.93 15.75 12C15.75 14.07 14.07 15.75 12 15.75ZM12 9.75C10.76 9.75 9.75 10.76 9.75 12C9.75 13.24 10.76 14.25 12 14.25C13.24 14.25 14.25 13.24 14.25 12C14.25 10.76 13.24 9.75 12 9.75Z" fill="#666666"/>
<path d="M15.21 22.19C15 22.19 14.79 22.16 14.58 22.11C13.96 21.94 13.44 21.55 13.11 21L12.99 20.8C12.4 19.78 11.59 19.78 11 20.8L10.89 20.99C10.56 21.55 10.04 21.95 9.42 22.11C8.79 22.28 8.14 22.19 7.59 21.86L5.87 20.87C5.26 20.52 4.82 19.95 4.63 19.26C4.45 18.57 4.54 17.86 4.89 17.25C5.18 16.74 5.26 16.28 5.09 15.99C4.92 15.7 4.49 15.53 3.9 15.53C2.44 15.53 1.25 14.34 1.25 12.88V11.12C1.25 9.66004 2.44 8.47004 3.9 8.47004C4.49 8.47004 4.92 8.30004 5.09 8.01004C5.26 7.72004 5.19 7.26004 4.89 6.75004C4.54 6.14004 4.45 5.42004 4.63 4.74004C4.81 4.05004 5.25 3.48004 5.87 3.13004L7.6 2.14004C8.73 1.47004 10.22 1.86004 10.9 3.01004L11.02 3.21004C11.61 4.23004 12.42 4.23004 13.01 3.21004L13.12 3.02004C13.8 1.86004 15.29 1.47004 16.43 2.15004L18.15 3.14004C18.76 3.49004 19.2 4.06004 19.39 4.75004C19.57 5.44004 19.48 6.15004 19.13 6.76004C18.84 7.27004 18.76 7.73004 18.93 8.02004C19.1 8.31004 19.53 8.48004 20.12 8.48004C21.58 8.48004 22.77 9.67004 22.77 11.13V12.89C22.77 14.35 21.58 15.54 20.12 15.54C19.53 15.54 19.1 15.71 18.93 16C18.76 16.29 18.83 16.75 19.13 17.26C19.48 17.87 19.58 18.59 19.39 19.27C19.21 19.96 18.77 20.53 18.15 20.88L16.42 21.87C16.04 22.08 15.63 22.19 15.21 22.19ZM12 18.49C12.89 18.49 13.72 19.05 14.29 20.04L14.4 20.23C14.52 20.44 14.72 20.59 14.96 20.65C15.2 20.71 15.44 20.68 15.64 20.56L17.37 19.56C17.63 19.41 17.83 19.16 17.91 18.86C17.99 18.56 17.95 18.25 17.8 17.99C17.23 17.01 17.16 16 17.6 15.23C18.04 14.46 18.95 14.02 20.09 14.02C20.73 14.02 21.24 13.51 21.24 12.87V11.11C21.24 10.48 20.73 9.96004 20.09 9.96004C18.95 9.96004 18.04 9.52004 17.6 8.75004C17.16 7.98004 17.23 6.97004 17.8 5.99004C17.95 5.73004 17.99 5.42004 17.91 5.12004C17.83 4.82004 17.64 4.58004 17.38 4.42004L15.65 3.43004C15.22 3.17004 14.65 3.32004 14.39 3.76004L14.28 3.95004C13.71 4.94004 12.88 5.50004 11.99 5.50004C11.1 5.50004 10.27 4.94004 9.7 3.95004L9.59 3.75004C9.34 3.33004 8.78 3.18004 8.35 3.43004L6.62 4.43004C6.36 4.58004 6.16 4.83004 6.08 5.13004C6 5.43004 6.04 5.74004 6.19 6.00004C6.76 6.98004 6.83 7.99004 6.39 8.76004C5.95 9.53004 5.04 9.97004 3.9 9.97004C3.26 9.97004 2.75 10.48 2.75 11.12V12.88C2.75 13.51 3.26 14.03 3.9 14.03C5.04 14.03 5.95 14.47 6.39 15.24C6.83 16.01 6.76 17.02 6.19 18C6.04 18.26 6 18.57 6.08 18.87C6.16 19.17 6.35 19.41 6.61 19.57L8.34 20.56C8.55 20.69 8.8 20.72 9.03 20.66C9.27 20.6 9.47 20.44 9.6 20.23L9.71 20.04C10.28 19.06 11.11 18.49 12 18.49Z" fill="#666666"/>
</symbol>
<symbol id="sort" viewBox="0 0 24 24" fill="none" xmlns="http://www.w3.org/2000/svg">
<path d="M21 7.75H3C2.59 7.75 2.25 7.41 2.25 7C2.25 6.59 2.59 6.25 3 6.25H21C21.41 6.25 21.75 6.59 21.75 7C21.75 7.41 21.41 7.75 21 7.75Z" fill="#292D32"/>
<path d="M18 12.75H6C5.59 12.75 5.25 12.41 5.25 12C5.25 11.59 5.59 11.25 6 11.25H18C18.41 11.25 18.75 11.59 18.75 12C18.75 12.41 18.41 12.75 18 12.75Z" fill="#292D32"/>
<path d="M14 17.75H10C9.59 17.75 9.25 17.41 9.25 17C9.25 16.59 9.59 16.25 10 16.25H14C14.41 16.25 14.75 16.59 14.75 17C14.75 17.41 14.41 17.75 14 17.75Z" fill="#292D32"/>
</symbol>
<symbol id="check" viewBox="0 0 24 24" fill="none" xmlns="http://www.w3.org/2000/svg">
<path fill-rule="evenodd" clip-rule="evenodd" d="M20.5303 5.46967C20.8232 5.76256 20.8232 6.23744 20.5303 6.53033L9.53033 17.5303C9.23744 17.8232 8.76256 17.8232 8.46967 17.5303L3.46967 12.5303C3.17678 12.2374 3.17678 11.7626 3.46967 11.4697C3.76256 11.1768 4.23744 11.1768 4.53033 11.4697L9 15.9393L19.4697 5.46967C19.7626 5.17678 20.2374 5.17678 20.5303 5.46967Z" fill="#626266"/>
</symbol>
<symbol id="check-circle" viewBox="0 0 24 24" fill="none" xmlns="http://www.w3.org/2000/svg">
<path d="M12 22.75C6.07 22.75 1.25 17.93 1.25 12C1.25 6.07 6.07 1.25 12 1.25C17.93 1.25 22.75 6.07 22.75 12C22.75 17.93 17.93 22.75 12 22.75ZM12 2.75C6.9 2.75 2.75 6.9 2.75 12C2.75 17.1 6.9 21.25 12 21.25C17.1 21.25 21.25 17.1 21.25 12C21.25 6.9 17.1 2.75 12 2.75Z" fill="#292D32"/>
<path d="M10.5799 15.58C10.3799 15.58 10.1899 15.5 10.0499 15.36L7.21994 12.53C6.92994 12.24 6.92994 11.76 7.21994 11.47C7.50994 11.18 7.98994 11.18 8.27994 11.47L10.5799 13.77L15.7199 8.62998C16.0099 8.33998 16.4899 8.33998 16.7799 8.62998C17.0699 8.91998 17.0699 9.39998 16.7799 9.68998L11.1099 15.36C10.9699 15.5 10.7799 15.58 10.5799 15.58Z" fill="#292D32"/>
</symbol>
<symbol id="trash" viewBox="0 0 24 24" fill="none" xmlns="http://www.w3.org/2000/svg">
<path d="M21.0002 6.72998C20.9802 6.72998 20.9502 6.72998 20.9202 6.72998C15.6302 6.19998 10.3502 5.99998 5.12016 6.52998L3.08016 6.72998C2.66016 6.76998 2.29016 6.46998 2.25016 6.04998C2.21016 5.62998 2.51016 5.26998 2.92016 5.22998L4.96016 5.02998C10.2802 4.48998 15.6702 4.69998 21.0702 5.22998C21.4802 5.26998 21.7802 5.63998 21.7402 6.04998C21.7102 6.43998 21.3802 6.72998 21.0002 6.72998Z" fill="#292D32"/>
<path d="M8.49977 5.72C8.45977 5.72 8.41977 5.72 8.36977 5.71C7.96977 5.64 7.68977 5.25 7.75977 4.85L7.97977 3.54C8.13977 2.58 8.35977 1.25 10.6898 1.25H13.3098C15.6498 1.25 15.8698 2.63 16.0198 3.55L16.2398 4.85C16.3098 5.26 16.0298 5.65 15.6298 5.71C15.2198 5.78 14.8298 5.5 14.7698 5.1L14.5498 3.8C14.4098 2.93 14.3798 2.76 13.3198 2.76H10.6998C9.63977 2.76 9.61977 2.9 9.46977 3.79L9.23977 5.09C9.17977 5.46 8.85977 5.72 8.49977 5.72Z" fill="#292D32"/>
<path d="M15.2099 22.75H8.7899C5.2999 22.75 5.1599 20.82 5.0499 19.26L4.3999 9.18995C4.3699 8.77995 4.6899 8.41995 5.0999 8.38995C5.5199 8.36995 5.8699 8.67995 5.8999 9.08995L6.5499 19.16C6.6599 20.68 6.6999 21.25 8.7899 21.25H15.2099C17.3099 21.25 17.3499 20.68 17.4499 19.16L18.0999 9.08995C18.1299 8.67995 18.4899 8.36995 18.8999 8.38995C19.3099 8.41995 19.6299 8.76995 19.5999 9.18995L18.9499 19.26C18.8399 20.82 18.6999 22.75 15.2099 22.75Z" fill="#292D32"/>
<path d="M13.6601 17.25H10.3301C9.92008 17.25 9.58008 16.91 9.58008 16.5C9.58008 16.09 9.92008 15.75 10.3301 15.75H13.6601C14.0701 15.75 14.4101 16.09 14.4101 16.5C14.4101 16.91 14.0701 17.25 13.6601 17.25Z" fill="#292D32"/>
<path d="M14.5 13.25H9.5C9.09 13.25 8.75 12.91 8.75 12.5C8.75 12.09 9.09 11.75 9.5 11.75H14.5C14.91 11.75 15.25 12.09 15.25 12.5C15.25 12.91 14.91 13.25 14.5 13.25Z" fill="#292D32"/>
</symbol>
<symbol id="trend-down" viewBox="0 0 24 24" fill="none" xmlns="http://www.w3.org/2000/svg">
<path d="M16.5 15.2499C16.31 15.2499 16.12 15.1799 15.97 15.0299L12.42 11.4799L11.33 13.1199C11.21 13.3099 11 13.4299 10.78 13.4499C10.55 13.4699 10.33 13.3899 10.18 13.2299L6.97995 10.0299C6.68995 9.73994 6.68995 9.25994 6.97995 8.96994C7.26995 8.67994 7.74995 8.67994 8.03995 8.96994L10.59 11.5199L11.68 9.87994C11.8 9.69994 12 9.57994 12.23 9.54994C12.46 9.52994 12.68 9.60994 12.83 9.76994L17.03 13.9699C17.32 14.2599 17.32 14.7399 17.03 15.0299C16.88 15.1799 16.69 15.2499 16.5 15.2499Z" fill="#626266"/>
<path d="M16.5 15.25H14.5C14.09 15.25 13.75 14.91 13.75 14.5C13.75 14.09 14.09 13.75 14.5 13.75H15.75V12.5C15.75 12.09 16.09 11.75 16.5 11.75C16.91 11.75 17.25 12.09 17.25 12.5V14.5C17.25 14.91 16.91 15.25 16.5 15.25Z" fill="#626266"/>
<path d="M15 22.75H9C3.57 22.75 1.25 20.43 1.25 15V9C1.25 3.57 3.57 1.25 9 1.25H15C20.43 1.25 22.75 3.57 22.75 9V15C22.75 20.43 20.43 22.75 15 22.75ZM9 2.75C4.39 2.75 2.75 4.39 2.75 9V15C2.75 19.61 4.39 21.25 9 21.25H15C19.61 21.25 21.25 19.61 21.25 15V9C21.25 4.39 19.61 2.75 15 2.75H9Z" fill="#626266"/>
</symbol>
<symbol id="trend-up" viewBox="0 0 24 24" fill="none" xmlns="http://www.w3.org/2000/svg">
<path d="M7.49994 15.2499C7.30994 15.2499 7.11994 15.1799 6.96994 15.0299C6.67994 14.7399 6.67994 14.2599 6.96994 13.9699L10.1699 10.7699C10.3299 10.6099 10.5399 10.5299 10.7699 10.5499C10.9899 10.5699 11.1899 10.6899 11.3199 10.8799L12.4099 12.5199L15.9599 8.96994C16.2499 8.67994 16.7299 8.67994 17.0199 8.96994C17.3099 9.25994 17.3099 9.73994 17.0199 10.0299L12.8199 14.2299C12.6599 14.3899 12.4499 14.4699 12.2199 14.4499C11.9999 14.4299 11.7999 14.3099 11.6699 14.1199L10.5799 12.4799L8.02994 15.0299C7.87994 15.1799 7.68994 15.2499 7.49994 15.2499Z" fill="#626266"/>
<path d="M16.5 12.25C16.09 12.25 15.75 11.91 15.75 11.5V10.25H14.5C14.09 10.25 13.75 9.91 13.75 9.5C13.75 9.09 14.09 8.75 14.5 8.75H16.5C16.91 8.75 17.25 9.09 17.25 9.5V11.5C17.25 11.91 16.91 12.25 16.5 12.25Z" fill="#626266"/>
<path d="M15 22.75H9C3.57 22.75 1.25 20.43 1.25 15V9C1.25 3.57 3.57 1.25 9 1.25H15C20.43 1.25 22.75 3.57 22.75 9V15C22.75 20.43 20.43 22.75 15 22.75ZM9 2.75C4.39 2.75 2.75 4.39 2.75 9V15C2.75 19.61 4.39 21.25 9 21.25H15C19.61 21.25 21.25 19.61 21.25 15V9C21.25 4.39 19.61 2.75 15 2.75H9Z" fill="#626266"/>
</symbol>
<symbol id="status" viewBox="0 0 24 24" fill="none" xmlns="http://www.w3.org/2000/svg">
<path d="M15.5 19.75H8.5C5.76 19.75 4.25 18.24 4.25 15.5V8.5C4.25 5.76 5.76 4.25 8.5 4.25H15.5C18.24 4.25 19.75 5.76 19.75 8.5V15.5C19.75 18.24 18.24 19.75 15.5 19.75ZM8.5 5.75C6.57 5.75 5.75 6.57 5.75 8.5V15.5C5.75 17.43 6.57 18.25 8.5 18.25H15.5C17.43 18.25 18.25 17.43 18.25 15.5V8.5C18.25 6.57 17.43 5.75 15.5 5.75H8.5Z" fill="#626266"/>
<path d="M12 14.75C11.59 14.75 11.25 14.41 11.25 14V10C11.25 9.59 11.59 9.25 12 9.25C12.41 9.25 12.75 9.59 12.75 10V14C12.75 14.42 12.41 14.75 12 14.75Z" fill="#626266"/>
<path d="M15 14.75C14.59 14.75 14.25 14.41 14.25 14V12C14.25 11.59 14.59 11.25 15 11.25C15.41 11.25 15.75 11.59 15.75 12V14C15.75 14.42 15.42 14.75 15 14.75Z" fill="#626266"/>
<path d="M9 14.75C8.59 14.75 8.25 14.41 8.25 14V13C8.25 12.59 8.59 12.25 9 12.25C9.41 12.25 9.75 12.59 9.75 13V14C9.75 14.42 9.41 14.75 9 14.75Z" fill="#626266"/>
</symbol>
</svg>
